<svg xmlns="http://www.w3.org/2000/svg" viewBox="0 0 381.65 55.37"><title>PhlowAi</title><g id="Layer_2" data-name="Layer 2"><g id="Layer_1-2" data-name="Layer 1"><path d="M0,1.72H32.52q10.31,0,15.82,5.22a17.07,17.07,0,0,1,5.52,12.92,17.5,17.5,0,0,1-5.24,12.8A17.12,17.12,0,0,1,36,37.93q-6.15,0-12.27-4.67V55.37H0Zm23.73,11.6V25a8,8,0,0,0,2,.28A5.79,5.79,0,0,0,30,23.59a6,6,0,0,0,1.66-4.43,6.14,6.14,0,0,0-1.41-4.27,5.12,5.12,0,0,0-4-1.57Z"/><path d="M83.36,55.37H59.59V1.72H83.36V21.38H95.45V1.72h23.76V55.37H95.45V35.44H83.36Z"/><path d="M129.52,55.37V1.72h23.76V41.91h20.81V55.37Z"/><path d="M205.35,55.37a26.42,26.42,0,0,1-19.5-8.07,26.88,26.88,0,0,1-8-19.67,26.74,26.74,0,0,1,8-19.6,27.73,27.73,0,0,1,39,0,26.75,26.75,0,0,1,8,19.6,26.89,26.89,0,0,1-8,19.67A26.46,26.46,0,0,1,205.35,55.37Zm0-34.8a5,5,0,0,0-3.8,1.6,5.59,5.59,0,0,0-1.51,4,5.63,5.63,0,0,0,1.51,4,5.35,5.35,0,0,0,7.63,0,5.63,5.63,0,0,0,1.51-4,5.59,5.59,0,0,0-1.51-4A5,5,0,0,0,205.35,20.57Z"/><path d="M269.3,55.37H251.82L232.88,1.72H256l6.23,17.51L268.8,1.72h16.49l6.86,17.51L298,1.72h23.2L303.15,55.37H285.64l-8.47-21.23Z"/><path d="M357.92,55.37V1.72h23.73V55.37Z"/><polygon points="347.27 55.37 317.79 55.37 321.65 44.06 343.41 44.06 347.27 55.37"/><polygon points="339.38 28.6 325.67 28.6 332.54 7.81 339.38 28.6"/></g></g></svg>