<svg xmlns="http://www.w3.org/2000/svg" xmlns:xlink="http://www.w3.org/1999/xlink" viewBox="0 0 464.47 407.54"><defs><style>.cls-1{fill:#8491d5;}.cls-2{fill:#bfbeed;}.cls-3{fill:#ffa200;}.cls-4{fill:#e4e6f0;}.cls-5{fill:#1f0159;}.cls-6{fill:#cccbf6;}.cls-7{fill:#98a4e0;}.cls-8{fill:#e3e2f2;}.cls-9{isolation:isolate;}.cls-10{fill:#f4f4fb;}.cls-11{fill:#ff445f;}.cls-12{fill:url(#New_Gradient_Swatch_copy_3);}.cls-13{fill:#edecf8;}.cls-14{fill:#0b1b38;}.cls-15{fill:#010958;}.cls-16{fill:#291321;}.cls-17{fill:#e82e4a;}.cls-18{clip-path:url(#clip-path);}.cls-19{clip-path:url(#clip-path-2);}.cls-20{clip-path:url(#clip-path-3);}.cls-21{clip-path:url(#clip-path-4);}.cls-22{clip-path:url(#clip-path-5);}.cls-23{clip-path:url(#clip-path-6);}.cls-24{clip-path:url(#clip-path-7);}.cls-25{clip-path:url(#clip-path-8);}.cls-26{clip-path:url(#clip-path-9);}.cls-27{clip-path:url(#clip-path-10);}.cls-28{fill:#ffc7ad;}.cls-29{fill:#f3a984;}.cls-30{fill:#ffb700;}.cls-31{fill:#fbc70e;}.cls-32{fill:#fff8f5;}.cls-33{fill:#4f389e;}.cls-34{clip-path:url(#clip-path-11);}.cls-35{clip-path:url(#clip-path-12);}.cls-36{clip-path:url(#clip-path-13);}.cls-37{clip-path:url(#clip-path-14);}.cls-38{clip-path:url(#clip-path-15);}.cls-39{clip-path:url(#clip-path-16);}.cls-40{clip-path:url(#clip-path-17);}.cls-41{clip-path:url(#clip-path-18);}.cls-42{clip-path:url(#clip-path-19);}.cls-43{fill:#fff;}</style><linearGradient id="New_Gradient_Swatch_copy_3" x1="360.76" y1="317.65" x2="180.93" y2="227.06" gradientUnits="userSpaceOnUse"><stop offset="0" stop-color="#4422a1"/><stop offset="0.12" stop-color="#4a239f"/><stop offset="0.27" stop-color="#5a2699"/><stop offset="0.44" stop-color="#742b90"/><stop offset="0.62" stop-color="#9a3283"/><stop offset="0.81" stop-color="#c93a72"/><stop offset="1" stop-color="#ff445f"/></linearGradient><clipPath id="clip-path"><path class="cls-1" d="M291.26,136.16a16.24,16.24,0,0,0-3.45-1.52,13.22,13.22,0,0,0-3.05-.56,11.06,11.06,0,0,0-3.2.27,10,10,0,0,0-2.72,1.08c2.53-1.47,5.93-1.05,9.36.93A2.93,2.93,0,0,1,291.26,136.16Z"/></clipPath><clipPath id="clip-path-2"><path class="cls-1" d="M278.84,135.43l-1.29.75c2.53-1.47,5.92-1.05,9.35.93l1.3-.75C284.77,134.38,281.37,134,278.84,135.43Z"/></clipPath><clipPath id="clip-path-3"><path class="cls-6" d="M335.41,196.22l-36.74-52.95c-.15-.21-1,.08-2.42.93l36.76,53C334.47,196.35,335.28,196,335.41,196.22Z"/></clipPath><clipPath id="clip-path-4"><path class="cls-1" d="M334,215.73a8.31,8.31,0,0,0,2.1-1.71,8.86,8.86,0,0,0,1.28-1.82,11.28,11.28,0,0,0,1.34-4.78,18.16,18.16,0,0,0-3.28-11.2c-.13-.18-.94.13-2.4,1,4.35,6.4,5.3,14.08,2.19,17.53A5.05,5.05,0,0,1,334,215.73Z"/></clipPath><clipPath id="clip-path-5"><path class="cls-1" d="M332.68,216.48l1.29-.75a5.05,5.05,0,0,0,1.23-1c3.11-3.45,2.16-11.13-2.19-17.53l-1.29.75c4.35,6.4,5.3,14.08,2.19,17.53A5.05,5.05,0,0,1,332.68,216.48Z"/></clipPath><clipPath id="clip-path-6"><path class="cls-7" d="M197.83,225.22c.25,1.19.6,2.77,1,3.92a38.27,38.27,0,0,0,1.48,3.8,24.45,24.45,0,0,0,1.32,2.54c.32.51.72,1.21,1.06,1.71.49.73,1.18,1.69,1.72,2.39a42.49,42.49,0,0,0,5,5.33,45.15,45.15,0,0,0,3.67,3,46.48,46.48,0,0,0,4,2.62c-4-2.33-6.87-6.7-8-12.89C202.57,233.79,198.52,229.12,197.83,225.22Z"/></clipPath><clipPath id="clip-path-7"><path class="cls-7" d="M217.08,250.48l4.58,2.66c-4-2.33-6.87-6.7-8-12.89l-4.58-2.66C210.21,243.78,213.07,248.15,217.08,250.48Z"/></clipPath><clipPath id="clip-path-8"><path class="cls-7" d="M221.66,253.14c.59.33,1.36.78,2,1.08.81.42,1.9.94,2.73,1.32,2.14,1,4.37,1.67,4.39,1.68,1.2.36,2.81.8,4,1.09.74.18,1.74.33,2.49.46a34.63,34.63,0,0,0,4.65.4c.88,0,2.06,0,3-.07.6,0,1.4-.13,2-.2a31.87,31.87,0,0,0,3.75-.74,33,33,0,0,0,8.09-3.37,3.85,3.85,0,0,0,1.91-3.61c-9.56,5.52-17.77,2.39-19.52-7.42-5,3.94-17.28,2.37-27.4-3.51C214.79,246.44,217.65,250.81,221.66,253.14Z"/></clipPath><clipPath id="clip-path-9"><path class="cls-2" d="M208,266.79c.2-.13.48-.29.67-.43a10.18,10.18,0,0,0,1.06-.89,9,9,0,0,0,1.75-2.39,11.3,11.3,0,0,0,.78-2,12,12,0,0,0,.46-2.73,3.08,3.08,0,0,1-1.69,2.49C210.89,263.74,209.77,265.79,208,266.79Z"/></clipPath><clipPath id="clip-path-10"><path class="cls-2" d="M206.75,267.54l1.29-.75c1.73-1,2.85-3.05,3-6l-1.29.75C209.6,264.49,208.48,266.54,206.75,267.54Z"/></clipPath><clipPath id="clip-path-11"><path class="cls-3" d="M391.87,25.13l3.27,1.9c-1.17-.68-2.79-.59-4.56.44l-3.27-1.9C389.08,24.54,390.7,24.45,391.87,25.13Z"/></clipPath><clipPath id="clip-path-12"><path class="cls-3" d="M308.32,112l-3.26-1.9c-1.16-.67-1.88-2.09-1.88-4.1l3.27,1.9C306.45,109.93,307.17,111.35,308.32,112Z"/></clipPath><clipPath id="clip-path-13"><path class="cls-3" d="M306.38,83.46l-3.27-1.9a14.14,14.14,0,0,1,6.4-11.07l3.26,1.9A14.15,14.15,0,0,0,306.38,83.46Z"/></clipPath><clipPath id="clip-path-14"><path class="cls-2" d="M311.59.38l3.27,1.9c-1-.6-2.45-.51-4,.39L307.57.77A4,4,0,0,1,311.59.38Z"/></clipPath><clipPath id="clip-path-15"><path class="cls-2" d="M269.35,59.31l-3.27-1.9a4,4,0,0,1-1.65-3.62l3.27,1.9A3.93,3.93,0,0,0,269.35,59.31Z"/></clipPath><clipPath id="clip-path-16"><path class="cls-2" d="M267.63,34.13l-3.26-1.9A12.46,12.46,0,0,1,270,22.46l3.26,1.9A12.48,12.48,0,0,0,267.63,34.13Z"/></clipPath><clipPath id="clip-path-17"><path class="cls-4" d="M122.44,296l-5,57.78c0,3.59-2.37,7.17-7.08,9.91-9.47,5.5-24.89,5.51-34.43,0-4.8-2.77-7.2-6.41-7.19-10.05L64,295.82c0,4.36,2.86,8.73,8.62,12.05,11.45,6.61,30,6.61,41.32,0C119.6,304.59,122.43,300.29,122.44,296Z"/></clipPath><clipPath id="clip-path-18"><path class="cls-5" d="M124.85,290.14V295c0,4.67-3.08,9.33-9.21,12.89-12.34,7.18-32.41,7.18-44.83,0-6.25-3.61-9.38-8.34-9.36-13.07V290c0,4.73,3.11,9.47,9.36,13.08,12.42,7.17,32.49,7.17,44.83,0C121.77,299.47,124.84,294.8,124.85,290.14Z"/></clipPath><clipPath id="clip-path-19"><path class="cls-5" d="M122.45,284.52v4.82c0,4.31-2.85,8.62-8.51,11.91-11.41,6.63-30,6.63-41.44,0-5.78-3.33-8.66-7.71-8.65-12.08v-4.82c0,4.38,2.88,8.75,8.65,12.09,11.48,6.62,30,6.62,41.44,0C119.6,293.14,122.44,288.84,122.45,284.52Z"/></clipPath></defs><title>Training</title><g id="Layer_2" data-name="Layer 2"><g id="Layer_1-2" data-name="Layer 1"><polygon class="cls-8" points="0 345.79 144.33 309.71 188.67 369.26 44.34 405.34 0 345.79"/><g class="cls-9"><polygon class="cls-10" points="66.31 373.55 148.37 315.35 253.48 349.18 171.42 407.38 66.31 373.55"/></g><path class="cls-11" d="M424.88,327a.64.64,0,0,1-.56.32.76.76,0,0,1-.33-.08l-3.94-2.28-38.89-22.45a.67.67,0,0,1-.32-.57.65.65,0,0,1,.32-.56L395.59,293l-12.95-7.48-2.16-1.25,1.29-.75,2.17,1.25,13.28,7.66a.66.66,0,0,1,0,1.13l-14.44,8.33,38.72,22.36,3.14,1.81A.65.65,0,0,1,424.88,327Z"/><path class="cls-11" d="M290.56,404.7a.68.68,0,0,1-.57.32.62.62,0,0,1-.32-.09l-3.82-2.2-39-22.52a.68.68,0,0,1-.33-.57.66.66,0,0,1,.33-.56l14.43-8.34-12.68-7.32-2.16-1.24,1.3-.76,2.15,1.25,13,7.51a.64.64,0,0,1,.33.56.65.65,0,0,1-.33.57l-14.43,8.33,38.89,22.46,3,1.71A.66.66,0,0,1,290.56,404.7Z"/><path class="cls-11" d="M356.78,363a.66.66,0,0,1-.56.32.66.66,0,0,1-.33-.09l-3.58-2.07-29.52-17a.63.63,0,0,1-.32-.56.65.65,0,0,1,.32-.56l10.95-6.32-9.86-5.8-1.28-.75-8.27-4.87L312.2,324l1.29-.74,2.13,1.26,8.27,4.86,1.28.75,10.19,6a.66.66,0,0,1,.32.56.68.68,0,0,1-.33.56l-10.93,6.31,29.64,17.12h0l2.47,1.43A.65.65,0,0,1,356.78,363Z"/><path class="cls-11" d="M410.39,361.23a.64.64,0,0,1-.56.32.73.73,0,0,1-.33-.08l-3.82-2.21-53.81-31.07a.65.65,0,0,1-.32-.56.64.64,0,0,1,.32-.56l19.76-11.41-20.49-11.84L349,302.58l1.29-.75,2.16,1.25,20.82,12a.64.64,0,0,1,.33.56.66.66,0,0,1-.33.56l-19.76,11.41,53.69,31,3,1.71A.65.65,0,0,1,410.39,361.23Z"/><path class="cls-11" d="M352.65,377.45a.65.65,0,0,1-.57.33.65.65,0,0,1-.32-.09l-3.28-1.89-38.09-22-21,12.13a.61.61,0,0,1-.64,0l-22.31-12.88-2.16-1.25,1.29-.75,2.16,1.25,21.34,12.32,21-12.13a.63.63,0,0,1,.65,0l39.07,22.55,2.63,1.52A.64.64,0,0,1,352.65,377.45Z"/><path class="cls-11" d="M409.8,325.82a.65.65,0,0,1-.56.32.62.62,0,0,1-.32-.09l-3.71-2.13-44.46-25.68L358.59,297l1.29-.74,2.16,1.24,44.57,25.73,3,1.71A.65.65,0,0,1,409.8,325.82Z"/><path class="cls-11" d="M444.17,305.68a.67.67,0,0,1-.57.33.62.62,0,0,1-.32-.09l-4.08-2.35-43.95-25.38-2.16-1.25,1.29-.75,2.17,1.25,43.9,25.35,3.48,2A.65.65,0,0,1,444.17,305.68Z"/><path class="cls-11" d="M369.86,348.54a.64.64,0,0,1-.89.24l-4-2.32-34.08-19.67-1.29-.75-8.37-4.83L319.07,320l1.29-.75,2.16,1.25,8.36,4.83,1.3.75,33.95,19.6,3.49,2A.64.64,0,0,1,369.86,348.54Z"/><path class="cls-11" d="M305.37,386.14a.65.65,0,0,1-.57.32.63.63,0,0,1-.32-.08l-3.73-2.16h0l-44.11-25.47-2.16-1.25,1.3-.75,2.15,1.25,44.22,25.52,3,1.73A.65.65,0,0,1,305.37,386.14Z"/><polygon class="cls-11" points="352.95 314.05 332.18 326.04 330.88 326.79 325.17 330.08 323.88 330.83 297.84 345.86 293.96 348.11 293.31 346.99 296.77 344.99 322.6 330.08 323.89 329.33 329.59 326.04 330.88 325.29 350.35 314.05 341.92 309.18 339.76 307.93 341.06 307.19 343.21 308.43 352.95 314.05"/><path class="cls-11" d="M292.94,402.67c1.93,1.11,1.93,2.92,0,4a7.71,7.71,0,0,1-7,0c-1.93-1.11-1.93-2.92,0-4A7.71,7.71,0,0,1,292.94,402.67Z"/><path class="cls-11" d="M308.13,384c1.93,1.11,1.93,2.92,0,4a7.77,7.77,0,0,1-7,0c-1.93-1.12-1.93-2.93,0-4A7.71,7.71,0,0,1,308.13,384Z"/><path class="cls-11" d="M296.83,345c1.93,1.11,1.93,2.92,0,4a7.75,7.75,0,0,1-7,0c-1.94-1.12-1.94-2.93,0-4A7.69,7.69,0,0,1,296.83,345Z"/><path class="cls-11" d="M356,375.4c1.93,1.11,1.93,2.92,0,4a7.77,7.77,0,0,1-7,0c-1.93-1.12-1.93-2.93,0-4A7.71,7.71,0,0,1,356,375.4Z"/><path class="cls-11" d="M358.76,361.38c1.94,1.11,1.94,2.92,0,4a7.75,7.75,0,0,1-7,0c-1.93-1.12-1.93-2.93,0-4A7.69,7.69,0,0,1,358.76,361.38Z"/><path class="cls-11" d="M372.8,345.81c1.93,1.12,1.93,2.92,0,4a7.71,7.71,0,0,1-7,0c-1.93-1.12-1.93-2.92,0-4A7.77,7.77,0,0,1,372.8,345.81Z"/><path class="cls-11" d="M412.81,359.18c1.93,1.12,1.93,2.93,0,4a7.71,7.71,0,0,1-7,0c-1.93-1.11-1.93-2.92,0-4A7.77,7.77,0,0,1,412.81,359.18Z"/><path class="cls-11" d="M412.59,323.67c1.93,1.11,1.93,2.92,0,4a7.77,7.77,0,0,1-7,0c-1.93-1.12-1.93-2.93,0-4A7.71,7.71,0,0,1,412.59,323.67Z"/><path class="cls-11" d="M427.28,324.76c1.93,1.12,1.93,2.93,0,4a7.71,7.71,0,0,1-7,0c-1.93-1.11-1.93-2.92,0-4A7.77,7.77,0,0,1,427.28,324.76Z"/><path class="cls-11" d="M446.9,303.06c1.93,1.12,1.93,2.92,0,4a7.77,7.77,0,0,1-7,0c-1.93-1.12-1.93-2.92,0-4A7.77,7.77,0,0,1,446.9,303.06Z"/><g class="cls-9"><g class="cls-9"><g class="cls-9"><path class="cls-2" d="M271.35,152.68a5.5,5.5,0,0,1,5.37,0,1.66,1.66,0,0,0-1.72.11,2.14,2.14,0,0,0-1.91,0,1.67,1.67,0,0,0-1.74-.11Z"/><path class="cls-2" d="M275.09,152.75a2.41,2.41,0,0,0-2.06,0,1.62,1.62,0,0,0-1.68-.08h0a4.68,4.68,0,0,1,.59-.3l.27-.1.29-.09.26-.07.26-.05.26,0,.25,0,.26,0h.75l.26,0,.25,0,.26.06.27.07.26.08.28.11.28.13.32.17a1.62,1.62,0,0,0-1.63.06Z"/></g></g><g class="cls-9"><path class="cls-7" d="M439.3,252a5.72,5.72,0,0,1-2.74,5.05,3.2,3.2,0,0,0,1.16-2.86A2.68,2.68,0,0,0,439.3,252Z"/></g><g class="cls-9"><g class="cls-9"><path class="cls-2" d="M434.88,245.9,275,152.8l.09-.05L435,245.85l-.09.05Z"/><path class="cls-2" d="M435,245.85l-159.88-93.1a1.62,1.62,0,0,1,1.63-.06l16,9.31,16,9.31,16,9.31,16,9.31,16,9.31,16,9.31,16,9.31,16,9.31,16,9.31,16,9.31a1.63,1.63,0,0,0-1.62.06Z"/></g></g><g class="cls-9"><path class="cls-2" d="M439.3,250.9V252a2.68,2.68,0,0,1-1.58,2.19v-1.1a2.68,2.68,0,0,0,1.57-2.2Z"/></g><g class="cls-9"><g class="cls-9"><path class="cls-2" d="M436.59,245.79a5.8,5.8,0,0,1,2.71,5.11,2.68,2.68,0,0,1-1.57,2.2c0-2.44-1.26-5.16-2.85-6.09a.59.59,0,0,0,0-1.11,1.64,1.64,0,0,1,1.71-.11Z"/><path class="cls-2" d="M437.66,252a1,1,0,0,1,.14-.27,4.37,4.37,0,0,0,.05-3.62c-.51-1.19-.78-1.32-2.88-2.3a1.63,1.63,0,0,1,1.62-.06h0a4.81,4.81,0,0,1,1,.72l.25.26c.13.15.29.36.41.52l.21.31c.09.16.2.37.28.53l.16.36c.06.16.13.37.18.54l.11.4.1.55,0,.42c0,.15,0,.35,0,.5a2.68,2.68,0,0,1-1.57,2.2,7.55,7.55,0,0,0-.07-1.06Z"/></g></g><g class="cls-9"><path class="cls-7" d="M52.9,289.79a5.88,5.88,0,0,1-2.71-5.12,2.7,2.7,0,0,0,1.58,2.24c0,1.45.43,2.47,1.13,2.88Z"/></g><g class="cls-9"><g class="cls-9"><path class="cls-2" d="M273.09,152.79,54.67,278.63l-.05,0L273,152.76l.06,0Z"/><path class="cls-2" d="M273.08,152.76,54.62,278.6a1.67,1.67,0,0,0-1.69-.09l21.84-12.58,21.85-12.58,21.84-12.59,21.84-12.58,21.84-12.59L184,203l21.84-12.58,21.84-12.59,21.85-12.58,21.84-12.59a1.67,1.67,0,0,1,1.7.05Z"/></g></g><g class="cls-9"><path class="cls-6" d="M51.78,285.81v1.1a2.7,2.7,0,0,1-1.58-2.24v-1.1a2.73,2.73,0,0,0,1.59,2.24Z"/></g><g class="cls-9"><path class="cls-2" d="M50.19,283.57a5.8,5.8,0,0,1,2.75-5.06,1.66,1.66,0,0,1,1.73.12.59.59,0,0,0,0,1.11c-1.59.91-2.89,3.63-2.9,6.07a2.73,2.73,0,0,1-1.59-2.24Z"/><path class="cls-2" d="M54.62,278.6A8,8,0,0,0,53,280.43a3.77,3.77,0,0,0-.4,2,8.79,8.79,0,0,0-.77,3.42,2.73,2.73,0,0,1-1.59-2.24h0a8.36,8.36,0,0,1,.07-.9l.07-.41c0-.16.09-.38.14-.54l.13-.38c.06-.16.15-.36.22-.51l.18-.35c.09-.15.21-.35.31-.49l.23-.29.44-.48.26-.22a4.72,4.72,0,0,1,.7-.49,1.65,1.65,0,0,1,1.68.09Z"/></g><g class="cls-9"><path class="cls-7" d="M219.31,380,437.72,254.2a3.2,3.2,0,0,1-1.16,2.86l-10.92,6.29-10.92,6.3-10.92,6.29-10.93,6.29L382,288.52,371,294.81l-10.92,6.29-10.92,6.3-10.92,6.29L327.35,320l-10.92,6.29-10.92,6.29-10.92,6.3-10.92,6.29-10.92,6.29-10.92,6.29L250.91,364,240,370.32l-10.92,6.29-10.92,6.29h0a3.2,3.2,0,0,0,1.17-2.86Z"/></g><g class="cls-9"><path class="cls-7" d="M51.77,286.91,211.65,380a3.2,3.2,0,0,0,1.12,2.88l-16-9.31-16-9.31-16-9.31-16-9.31-16-9.31-16-9.31-16-9.32-16-9.31-16-9.31-16-9.31c-.7-.4-1.14-1.42-1.13-2.87Z"/></g><polygon class="cls-6" points="437.73 253.1 437.72 254.21 219.31 380.04 219.31 378.94 437.73 253.1"/><polygon class="cls-6" points="211.66 378.91 211.65 380.01 51.77 286.91 51.78 285.81 211.66 378.91"/><g class="cls-9"><path class="cls-7" d="M218.15,382.9a5.53,5.53,0,0,1-5.38,0,3.2,3.2,0,0,1-1.12-2.88,8.44,8.44,0,0,0,7.66,0,3.22,3.22,0,0,1-1.16,2.86Z"/></g><path class="cls-10" d="M434.88,245.9a.59.59,0,0,1,0,1.11L216.47,372.85a2.13,2.13,0,0,1-1.92,0L54.68,279.74a.59.59,0,0,1,0-1.11L273.09,152.79a2.14,2.14,0,0,1,1.91,0Z"/><polygon class="cls-12" points="425.02 245.87 274.01 157.93 70.44 275.55 221.44 363.48 425.02 245.87"/><g class="cls-9"><g class="cls-9"><path class="cls-6" d="M219.31,378.94V380a8.44,8.44,0,0,1-7.66,0v-1.1a8.45,8.45,0,0,0,7.65,0Z"/></g></g><g class="cls-9"><g class="cls-9"><path class="cls-8" d="M216.47,372.85,434.88,247c1.36.79,2.49,2.91,2.78,5L219.25,377.88c-.29-2.12-1.42-4.24-2.78-5Z"/><path class="cls-6" d="M219.25,377.88,437.66,252a7.55,7.55,0,0,1,.07,1.06L219.31,378.94a7.54,7.54,0,0,0-.06-1.06Z"/></g></g><g class="cls-9"><g class="cls-9"><path class="cls-13" d="M54.68,279.74l159.87,93.1a5.78,5.78,0,0,0-2.12,2.64L52.56,282.38a5.71,5.71,0,0,1,2.12-2.64Z"/><path class="cls-8" d="M52.56,282.38l159.87,93.1a8.7,8.7,0,0,0-.77,3.43L51.78,285.81a8.67,8.67,0,0,1,.78-3.43Z"/></g></g><g class="cls-9"><g class="cls-9"><path class="cls-6" d="M216.47,372.85c1.59.93,2.86,3.65,2.84,6.09a8.45,8.45,0,0,1-7.65,0c0-2.44,1.31-5.15,2.89-6.07a2.13,2.13,0,0,0,1.92,0Z"/></g></g></g><path class="cls-8" d="M65.19,293.29a2,2,0,0,1-.23,1c-.35.65-1.1.81-2,.29a4.86,4.86,0,0,1-2.21-3.82c0-.88.39-1.44,1-1.55a1.77,1.77,0,0,1,1.24.27A4.88,4.88,0,0,1,65.19,293.29Z"/><path class="cls-14" d="M65.19,293.29a2,2,0,0,1-.23,1,1.7,1.7,0,0,1-1.25-.27,4.88,4.88,0,0,1-2.21-3.82,2,2,0,0,1,.23-1,1.77,1.77,0,0,1,1.24.27A4.88,4.88,0,0,1,65.19,293.29Z"/><path class="cls-8" d="M70.9,296.58a4.83,4.83,0,0,0,2.21,3.8l6.1,3.53a2,2,0,0,0,1,.3,1.07,1.07,0,0,0,.93-.5,1.88,1.88,0,0,0,.29-1.07,4.9,4.9,0,0,0-2.2-3.81l-6.1-3.52a2.26,2.26,0,0,0-.65-.26,1.32,1.32,0,0,0-.33-.05C71.4,295,70.9,295.59,70.9,296.58Z"/><path class="cls-14" d="M72.18,296.12a4.88,4.88,0,0,0,2.2,3.81l6.11,3.52a1.92,1.92,0,0,0,.63.26,1.88,1.88,0,0,0,.29-1.07,4.9,4.9,0,0,0-2.2-3.81l-6.1-3.52a2.26,2.26,0,0,0-.65-.26A1.86,1.86,0,0,0,72.18,296.12Z"/><path class="cls-10" d="M345,207.62l-30-17.33c-1.62-.94-1.62-2.46,0-3.4l4.46-2.57a6.5,6.5,0,0,1,5.89,0l30,17.33c1.62.94,1.62,2.46,0,3.4l-4.46,2.57A6.5,6.5,0,0,1,345,207.62Z"/><path class="cls-15" d="M338.06,196.83c-1.65.95-1.65,2.49,0,3.43a6.57,6.57,0,0,0,5.95,0c1.64-.95,1.65-2.49,0-3.44A6.6,6.6,0,0,0,338.06,196.83Z"/><path class="cls-15" d="M346.67,201.85a1.16,1.16,0,0,0,0,2.19,4.16,4.16,0,0,0,3.78,0,1.15,1.15,0,0,0,0-2.18A4.22,4.22,0,0,0,346.67,201.85Z"/><path class="cls-15" d="M326.26,193l-6-3.44a1.3,1.3,0,0,1,0-2.46h0a4.73,4.73,0,0,1,4.26,0l6,3.44a1.3,1.3,0,0,1,0,2.46h0A4.73,4.73,0,0,1,326.26,193Z"/><path class="cls-11" d="M251.45,302.28c-19.69,0-39.38-4.33-54.38-13-14.69-8.48-22.78-19.81-22.78-31.9s8.09-23.41,22.78-31.9c30-17.31,78.78-17.31,108.77,0,14.69,8.49,22.78,19.81,22.78,31.9s-8.09,23.42-22.78,31.9C290.84,298,271.15,302.28,251.45,302.28Zm0-88.06c-19.38,0-38.76,4.26-53.51,12.78C183.81,235.16,176,246,176,257.39s7.78,22.24,21.91,30.4c29.51,17,77.52,17,107,0,14.13-8.16,21.91-19,21.91-30.4S319.1,235.16,305,227C290.21,218.48,270.83,214.22,251.45,214.22Z"/><path class="cls-11" d="M251.45,315.26c-25.45,0-50.91-5.59-70.29-16.78C162.23,287.54,151.8,273,151.8,257.39s10.43-30.15,29.36-41.08c38.76-22.38,101.83-22.38,140.58,0,18.94,10.93,29.37,25.52,29.37,41.08s-10.43,30.15-29.37,41.09C302.36,309.67,276.91,315.26,251.45,315.26Zm0-114c-25.14,0-50.28,5.53-69.42,16.58-18.37,10.61-28.5,24.66-28.5,39.57s10.13,29,28.5,39.58c38.28,22.1,100.57,22.1,138.84,0,18.38-10.61,28.5-24.66,28.5-39.58s-10.12-29-28.5-39.57C301.73,206.77,276.59,201.24,251.45,201.24Z"/><path class="cls-11" d="M251.45,290.49c-14.46,0-28.92-3.18-39.93-9.54-10.83-6.25-16.8-14.62-16.8-23.56s6-17.3,16.8-23.56c22-12.71,57.85-12.71,79.87,0,10.83,6.26,16.8,14.62,16.8,23.56s-6,17.31-16.8,23.56C280.38,287.31,265.92,290.49,251.45,290.49Zm0-64.48c-14.14,0-28.29,3.11-39.06,9.33-10.27,5.93-15.93,13.76-15.93,22s5.66,16.13,15.93,22.06c21.54,12.43,56.59,12.43,78.13,0,10.27-5.93,15.93-13.76,15.93-22.06s-5.66-16.12-15.93-22C279.75,229.12,265.6,226,251.45,226Z"/><path class="cls-11" d="M251.45,277.84c-8.85,0-17.7-1.95-24.43-5.84s-10.38-9.05-10.38-14.61,3.69-10.74,10.38-14.61c13.47-7.78,35.4-7.78,48.87,0,6.69,3.87,10.38,9.06,10.38,14.61s-3.69,10.75-10.38,14.61S260.3,277.84,251.45,277.84Zm0-39.18c-8.53,0-17.07,1.88-23.56,5.63-6.13,3.54-9.51,8.19-9.51,13.1s3.38,9.57,9.51,13.11c13,7.5,34.14,7.5,47.13,0,6.13-3.54,9.51-8.2,9.51-13.11s-3.38-9.56-9.51-13.1C268.52,240.54,260,238.66,251.45,238.66Z"/><g class="cls-9"><polygon class="cls-2" points="396.97 276.9 396.35 276.54 396.34 272.89 396.96 273.25 396.97 276.9"/><polygon class="cls-10" points="396.96 273.25 396.34 272.89 409.02 265.56 409.64 265.92 396.96 273.25"/><polygon class="cls-6" points="409.64 265.92 409.65 269.58 396.97 276.9 396.96 273.25 409.64 265.92"/></g><g class="cls-9"><polygon class="cls-2" points="386.67 282.82 386.05 282.46 386.04 278.8 386.66 279.15 386.67 282.82"/><polygon class="cls-10" points="386.66 279.15 386.04 278.8 393.16 274.69 393.77 275.05 386.66 279.15"/><polygon class="cls-6" points="393.77 275.05 393.79 278.71 386.67 282.82 386.66 279.15 393.77 275.05"/></g><polygon class="cls-13" points="169.59 197.2 109.3 232.01 109.3 104.2 169.58 69.39 169.59 197.2"/><path class="cls-16" d="M139.65,98.78a5.9,5.9,0,0,1-.49,2.32c-.17.41-.53.71-.79.67s-.35-.41-.19-.82a3.51,3.51,0,0,0,.32-1.45,1.2,1.2,0,0,0-.34-.85c.45-.26.86-.56,1.28-.81A2.6,2.6,0,0,1,139.65,98.78Z"/><path class="cls-17" d="M129.4,131c-3,1.44-5.07-4.89-6-7.28-.43-1.13-1.11-1.69.33-3.91C126.49,115.59,133.35,129.14,129.4,131Z"/><path class="cls-17" d="M130.44,119.79c-3-4.66,1.91-8.21,3.45-10.05,2.49-3,4-2.47,4.68-2.43,2.73.18,5.45-1.63,7.56,2.11,3,5.37,1.14,12.91-1.44,14.84C141.67,126.52,134.08,125.44,130.44,119.79Z"/><path class="cls-16" d="M148.15,115.79,123.53,130c-1.65.95-3,.51-3.43-1.11a6.89,6.89,0,0,1,1.76-5.62l12.3-14.74a4.56,4.56,0,0,1,3.36-1.93l12.3.52c1.46.07,2.17,1.51,1.76,3.59A7.79,7.79,0,0,1,148.15,115.79Zm-12.31-7.38a4.42,4.42,0,0,0-1.13,1L122.4,124.13a4.55,4.55,0,0,0-1.18,3.79c.21.84.94,1.54,2.31.75l24.62-14.21a5.26,5.26,0,0,0,2.31-3.43c.21-1.08,0-2.36-1.18-2.42L137,108.09A2.12,2.12,0,0,0,135.84,108.41Z"/><path class="cls-17" d="M152.27,151.05c1.93,12.06,5.31,24.89,6.38,37.27.29,3.39.31,7.11-2.64,9.39a14.82,14.82,0,0,1-6.64,2.91c-3,.38-6-.35-9-.12a22.8,22.8,0,0,0-9.85,3.12c-1.37.82-2.87,1.82-4.44,1.49s-2.64-2.09-3.11-3.73c-1.12-3.88-.83-8.56-1.11-12.61a80.06,80.06,0,0,1,.21-13.41c.87-8.62,3.2-17.35,8-24.66a2.58,2.58,0,0,0,.68,1.07,13.91,13.91,0,0,0,5.27,2.45,23.13,23.13,0,0,0,11.56-.61C149.23,153.15,151.19,152.42,152.27,151.05Z"/><path class="cls-11" d="M129.4,131c3.94-1.87-2.86-15.34-5.61-11.23a21.42,21.42,0,0,1,1.67-2.36,17.3,17.3,0,0,1,2.82-3.09l2.57-2.11c.49-.07.8,1.06.86,1.37.66,3.39,6.87,7.7,9.43,4.25s-1.63-10.41.44-11.08a15.54,15.54,0,0,1,3.29-.07c3.49.09,3.45.74,4.63,3.64,8.28,20.29.4,23.41,2.77,40.71.08.54.14.71-.26,1a10.16,10.16,0,0,1-2.86,1.07c-.67.22-1.35.44-2,.62a26.59,26.59,0,0,1-5.76,1.14c-3,.13-10.24-.7-11.47-4.23-.37-1-.06-2.76-.14-3.89a52.74,52.74,0,0,0-3-14.75c-.33-.93-.64-2.15-1-3.07C125.69,129,127.53,131.9,129.4,131Z"/><path class="cls-16" d="M134.18,100.31A5.57,5.57,0,0,1,137.51,97a1.56,1.56,0,0,1,1.93.85c-.42.25-.83.55-1.28.81a1.08,1.08,0,0,0-1-.19,3.44,3.44,0,0,0-2.06,2.08c-.64,1.41-.19,2.19.59,3.34a5.48,5.48,0,0,1,1.22,3.3,1.28,1.28,0,0,1-.57,1c-.32.18-.58,0-.58-.34a4.67,4.67,0,0,0-1.07-2.73A4.2,4.2,0,0,1,134.18,100.31Z"/><path class="cls-1" d="M291.26,136.16a16.24,16.24,0,0,0-3.45-1.52,13.22,13.22,0,0,0-3.05-.56,11.06,11.06,0,0,0-3.2.27,10,10,0,0,0-2.72,1.08c2.53-1.47,5.93-1.05,9.36.93A2.93,2.93,0,0,1,291.26,136.16Z"/><g class="cls-18"><g class="cls-9"><path class="cls-1" d="M291.26,136.16c-4.6-2.54-8.66-2.77-12.42-.73,2.53-1.47,5.93-1.05,9.36.93a2.93,2.93,0,0,1,3.06-.2Z"/><path class="cls-1" d="M288.09,136.3a.81.81,0,0,0,.22,0,2.89,2.89,0,0,1,2.95-.14l-.64-.35c-.21-.11-.49-.26-.71-.36l-.66-.29-.76-.29-.68-.23c-.24-.06-.56-.16-.8-.21l-.7-.15-.85-.13-.7-.07c-.27,0-.63,0-.89,0l-.71,0-.91.11-.69.14c-.27.07-.64.17-.91.26l-.66.25c-.35.16-.81.38-1.15.57,2.5-1.45,5.85-1.06,9.25.87Z"/></g></g><g class="cls-9"><path class="cls-1" d="M318.32,209.08l-39.77-49.6c-1,1.34-1.3,2.22-1,2.57l2,2.48,2,2.48h0l2,2.48,2,2.48h0l2,2.48,2,2.49h0l2,2.48,2,2.48h0l2,2.48,2,2.48h0l2,2.48,2,2.49h0l2,2.48,2,2.48h0l2,2.48,2,2.49h0l2,2.48,2,2.48h0l2,2.48,2,2.49h0c-.29-.36,0-1.25,1-2.61Z"/></g><g class="cls-9"><path class="cls-1" d="M278.84,135.43l-1.29.75c2.53-1.47,5.92-1.05,9.35.93l1.3-.75C284.77,134.38,281.37,134,278.84,135.43Z"/><g class="cls-19"><g class="cls-9"><path class="cls-1" d="M286.9,137.11l1.3-.75-.11-.06-1.29.75.1.06Z"/><path class="cls-1" d="M286.8,137.05l1.29-.75c-3.4-1.93-6.75-2.32-9.25-.87l-1.29.75c2.5-1.45,5.85-1.06,9.25.87Z"/></g></g></g><g class="cls-9"><path class="cls-1" d="M278.55,159.48c-3-3.79-3.92-9-1.92-11.15,1.2-1.33,3.11-1.29,5.09-.15a15.89,15.89,0,0,1,2.94-9,30.1,30.1,0,0,1,2.24-2.1c-2.77-2-6.85-2.38-9.35-.93l-.6.38c-.25.18-.57.41-.8.6l-.54.49-.48.5-.64.78c-.3.45-.69,1.07-1,1.54l-.44.95c-.18.47-.4,1.11-.55,1.59l-.24,1.05c-.07.46-.17,1.07-.22,1.53l-.07,1.13c0,.42,0,1,0,1.42l.09,1.16c.06.4.12.93.19,1.33l.23,1.17c.1.38.22.88.33,1.26l.36,1.16c.13.36.3.84.44,1.19l.49,1.15c.17.34.38.8.55,1.14l.61,1.11c.2.33.46.78.67,1.1l.74,1.08c.24.32.55.75.8,1.06-.28-.35,0-1.23,1-2.57Z"/></g><g class="cls-9"><path class="cls-8" d="M298.67,143.27a23.24,23.24,0,0,0-7.39-7.1,2.94,2.94,0,0,0-3.08.19,25.63,25.63,0,0,1,8.05,7.84c1.45-.85,2.28-1.15,2.42-.93Z"/><path class="cls-2" d="M288.2,136.36c3.85,2.33,7.87,7.3,8.21,7.74,1.36-.77,2.12-1,2.26-.83l-.31-.45-.32-.44-.32-.43-.33-.41-.33-.41-.34-.4-.35-.39L296,140l-.36-.37-.36-.36-.37-.35-.38-.34-.39-.33-.39-.33-.4-.31-.41-.31-.41-.28-.42-.29-.43-.27-.44-.26a2.79,2.79,0,0,0-2.57-.06c-.16.07-.33.17-.49.26Z"/></g><path class="cls-8" d="M295,145l1.3-.75c-.32-.47-.65-.93-1-1.36l-1.29.75c.33.43.66.89,1,1.36Z"/><path class="cls-8" d="M294,143.59l1.29-.75a24.5,24.5,0,0,0-7.07-6.48l-1.3.75a24.53,24.53,0,0,1,7.08,6.48Z"/><g class="cls-9"><path class="cls-2" d="M285.56,152a60.28,60.28,0,0,1,9.39-7,25.53,25.53,0,0,0-8.05-7.84c-2.85,1.66-5.17,6.61-5.18,11.07a12.13,12.13,0,0,1,3.84,3.79Z"/><path class="cls-2" d="M281.72,148.18a12.13,12.13,0,0,1,3.84,3.79,59.87,59.87,0,0,1,6.21-5l0,0c-2-3.65-2.12-5.52-.22-5a6,6,0,0,1,2.45,1.6,24.76,24.76,0,0,0-7.08-6.47c-2.85,1.66-5.17,6.61-5.18,11.07Z"/><path class="cls-2" d="M281.72,148.18a12.13,12.13,0,0,1,3.84,3.79,52.68,52.68,0,0,1,4.36-3.61l-.18-.29c-4.34-7.07-4.69-7.65-4.75-9.27a15.62,15.62,0,0,0-3.27,9.38Z"/></g><path class="cls-7" d="M281.72,148.18c-2-1.14-3.89-1.18-5.09.15-2,2.19-1.11,7.36,1.92,11.15l39.77,49.6a6.27,6.27,0,0,0,1.77,1.6c1.11.64,2.2.66,2.86-.08,1-1.15.72-3.66-.71-5.77L285.56,152A12.13,12.13,0,0,0,281.72,148.18Z"/><g class="cls-9"><path class="cls-6" d="M335.41,196.22l-36.74-52.95c-.15-.21-1,.08-2.42.93l36.76,53C334.47,196.35,335.28,196,335.41,196.22Z"/><g class="cls-20"><g class="cls-9"><path class="cls-8" d="M296.25,144.2l36.76,53,.17-.1-36.77-53-.16.1Z"/><path class="cls-6" d="M296.41,144.1l36.77,53a11.27,11.27,0,0,1,1.72-.85l-36.76-53a9.89,9.89,0,0,0-1.73.83Z"/><path class="cls-2" d="M298.14,143.27l36.76,53c.28-.09.46-.1.51,0l-1.84-2.64-1.83-2.65h0l-1.84-2.64-1.83-2.65h0L326.23,183l-1.83-2.65h0l-1.84-2.65-1.84-2.64h0l-1.83-2.65-1.84-2.65h0l-1.84-2.65-1.84-2.65h0l-1.83-2.65-1.84-2.65h0l-1.84-2.65L306,153.86h0l-1.84-2.64-1.83-2.65h0l-1.84-2.65-1.84-2.65h0c-.06-.09-.24-.09-.53,0Z"/></g></g></g><path class="cls-1" d="M334,215.73a8.31,8.31,0,0,0,2.1-1.71,8.86,8.86,0,0,0,1.28-1.82,11.28,11.28,0,0,0,1.34-4.78,18.16,18.16,0,0,0-3.28-11.2c-.13-.18-.94.13-2.4,1,4.35,6.4,5.3,14.08,2.19,17.53A5.05,5.05,0,0,1,334,215.73Z"/><g class="cls-21"><g class="cls-9"><path class="cls-1" d="M334,215.73c5.78-3.64,6.39-11.85,1.44-19.51-.13-.18-.94.13-2.4,1,4.35,6.4,5.3,14.08,2.19,17.53a5.05,5.05,0,0,1-1.23,1Z"/><path class="cls-1" d="M334.91,196.25c4,6.07,3.21,10.6,2.11,12.32a8.75,8.75,0,0,1-1.82,6.16,5.05,5.05,0,0,1-1.23,1l.53-.33c.21-.15.48-.36.68-.52l.47-.42.42-.44.53-.63c.23-.35.54-.82.75-1.19l.37-.75c.15-.36.33-.84.45-1.21l.22-.82c.07-.34.16-.8.21-1.15l.09-.85c0-.32,0-.75,0-1.07l0-.86c0-.3-.05-.7-.09-1l-.13-.85c-.05-.28-.12-.65-.19-.93l-.21-.83c-.08-.26-.18-.61-.27-.87l-.3-.82c-.1-.25-.23-.58-.34-.83l-.38-.8c-.12-.24-.29-.56-.42-.79l-.45-.78-.5-.78c-.05-.07-.22-.06-.5,0Z"/></g></g><polygon class="cls-8" points="331.72 197.95 333.01 197.2 296.25 144.2 294.95 144.95 331.72 197.95"/><g class="cls-9"><path class="cls-1" d="M332.68,216.48l1.29-.75a5.05,5.05,0,0,0,1.23-1c3.11-3.45,2.16-11.13-2.19-17.53l-1.29.75c4.35,6.4,5.3,14.08,2.19,17.53A5.05,5.05,0,0,1,332.68,216.48Z"/><g class="cls-22"><g class="cls-9"><path class="cls-1" d="M332.68,216.48l1.29-.75a5.05,5.05,0,0,0,1.23-1,8.75,8.75,0,0,0,1.82-6.16l-1.29.75a8.75,8.75,0,0,1-1.82,6.16,5.05,5.05,0,0,1-1.23,1Z"/><path class="cls-2" d="M335.73,209.32l1.29-.75a20.06,20.06,0,0,0-1.85-7.5l-1.29.75a20.26,20.26,0,0,1,1.85,7.5Z"/><path class="cls-2" d="M333.88,201.82l1.29-.75A24.75,24.75,0,0,0,333,197.2l-1.29.75a24.75,24.75,0,0,1,2.16,3.87Z"/></g></g></g><g class="cls-9"><path class="cls-2" d="M285.56,152l36.68,52.86c1.16-1,2.76-2.3,4.42-3.52l-36.74-53a54.34,54.34,0,0,0-4.36,3.62Z"/><path class="cls-6" d="M289.92,148.35l36.74,53c.62-.45,1.25-.9,1.87-1.32l-36.75-53-1.86,1.35Z"/><path class="cls-6" d="M291.78,147l36.75,53c.31-.22.62-.42.92-.62l-36.76-53-.91.62Z"/><path class="cls-6" d="M292.69,146.38l36.76,53,1.4-.9-36.76-53c-.45.28-.92.58-1.4.91Z"/><path class="cls-6" d="M294.09,145.47l36.76,53,.87-.52L295,145l-.86.52Z"/></g><path class="cls-1" d="M317.32,211.69c4.49,5.55,10.52,7.43,15.36,4.79a5.05,5.05,0,0,0,1.23-1c3.11-3.45,2.16-11.13-2.19-17.53a68.12,68.12,0,0,0-9.48,6.88c1.43,2.11,1.74,4.62.71,5.77-.66.74-1.75.72-2.86.08a6.27,6.27,0,0,1-1.77-1.6c-1,1.36-1.29,2.25-1,2.61Z"/><path class="cls-7" d="M265.24,251c3-1.85,9.23-5.69,15.5-15.24a51.8,51.8,0,0,0,7.92-20.4,2.82,2.82,0,0,1-2.09,2.12c-1.69,11.8-9.86,24.38-19.42,29.9a3.87,3.87,0,0,1-1.91,3.62Z"/><path class="cls-7" d="M267.15,247.4l-3.27,1.89A3.84,3.84,0,0,1,262,252.9l.33-.18.32-.19.33-.19.33-.19.32-.19.33-.19.33-.19.33-.19.32-.18.33-.19a3.87,3.87,0,0,0,1.91-3.62Z"/><path class="cls-7" d="M263.88,249.29l-3.27,1.89a3.85,3.85,0,0,1-1.91,3.61l.33-.19.33-.19.32-.19L260,254l.33-.19.32-.19.33-.19.33-.19.32-.19.33-.19a3.84,3.84,0,0,0,1.91-3.61Z"/><path class="cls-7" d="M197.83,225.22c.25,1.19.6,2.77,1,3.92a38.27,38.27,0,0,0,1.48,3.8,24.45,24.45,0,0,0,1.32,2.54c.32.51.72,1.21,1.06,1.71.49.73,1.18,1.69,1.72,2.39a42.49,42.49,0,0,0,5,5.33,45.15,45.15,0,0,0,3.67,3,46.48,46.48,0,0,0,4,2.62c-4-2.33-6.87-6.7-8-12.89C202.57,233.79,198.52,229.12,197.83,225.22Z"/><g class="cls-23"><g class="cls-9"><path class="cls-7" d="M197.83,225.22c.83,3.95,3.38,15.95,19.25,25.26-4-2.33-6.87-6.7-8-12.89-6.54-3.8-10.59-8.47-11.28-12.37Z"/></g></g><path class="cls-2" d="M293.1,171.82l-6.53,45.68a2.83,2.83,0,0,0,2.1-2.2l6.53-45.67a2.83,2.83,0,0,1-2.1,2.19Z"/><path class="cls-7" d="M217.08,250.48l4.58,2.66c-4-2.33-6.87-6.7-8-12.89l-4.58-2.66C210.21,243.78,213.07,248.15,217.08,250.48Z"/><g class="cls-24"><g class="cls-9"><path class="cls-7" d="M213.69,240.25l-4.58-2.66c1.1,6.19,4,10.56,8,12.89l4.58,2.66c-4-2.33-6.87-6.7-8-12.89Z"/></g></g><path class="cls-13" d="M272.67,134.71c-16.43-9-26.9-5.46-33.35-2,3-1.73,9.21-.51,16.39,3.66,6.69-3.86,12.66-4.17,17-1.67Z"/><path class="cls-7" d="M221.66,253.14c.59.33,1.36.78,2,1.08.81.42,1.9.94,2.73,1.32,2.14,1,4.37,1.67,4.39,1.68,1.2.36,2.81.8,4,1.09.74.18,1.74.33,2.49.46a34.63,34.63,0,0,0,4.65.4c.88,0,2.06,0,3-.07.6,0,1.4-.13,2-.2a31.87,31.87,0,0,0,3.75-.74,33,33,0,0,0,8.09-3.37,3.85,3.85,0,0,0,1.91-3.61c-9.56,5.52-17.77,2.39-19.52-7.42-5,3.94-17.28,2.37-27.4-3.51C214.79,246.44,217.65,250.81,221.66,253.14Z"/><g class="cls-25"><path class="cls-7" d="M221.66,253.14c7.29,4,13,5.71,20.25,6a31.19,31.19,0,0,0,16.79-4.38,3.85,3.85,0,0,0,1.91-3.61c-9.56,5.52-17.77,2.39-19.52-7.42-5,3.94-17.28,2.37-27.4-3.51,1.1,6.19,4,10.56,8,12.89Z"/></g><path class="cls-13" d="M277.25,137.38l-4.58-2.67c-4.3-2.5-10.27-2.19-17,1.67l4.58,2.67c6.69-3.87,12.66-4.18,17-1.67Z"/><path class="cls-8" d="M240.71,145l15-8.66c-7.18-4.17-13.39-5.39-16.39-3.66l-13.5,7.79h0l-.74.43-.75.43c3-1.73,9.2-.5,16.38,3.67Z"/><path class="cls-8" d="M295.2,169.62c.6-5.42,2.17-19.84-17.85-32.18-4.4-2.57-10.37-2.26-17.06,1.61,10.12,5.88,18.34,15.39,18.36,21.25,9.14-5.28,16.06.24,14.45,11.52a2.82,2.82,0,0,0,2.1-2.2Z"/><polygon class="cls-8" points="260.29 139.05 255.71 136.38 240.71 145.04 245.29 147.7 260.29 139.05"/><path class="cls-2" d="M209.11,237.59l-6.77-38c-6.54-3.8-10.58-8.47-11.27-12.37l.33,1.9.34,1.9.34,1.9.34,1.9.34,1.9.33,1.9h0l.34,1.9.34,1.9.34,1.9.34,1.9.34,1.9.33,1.9.34,1.9.34,1.9.34,1.9.34,1.9.33,1.9.34,1.9.34,1.9.34,1.9c.69,3.89,4.74,8.57,11.28,12.37Z"/><polygon class="cls-2" points="206.93 202.25 202.34 199.59 209.11 237.59 213.69 240.25 206.93 202.25"/><path class="cls-8" d="M225.72,153.7l15-8.66c-7.18-4.17-13.39-5.4-16.38-3.67l-13.5,7.79-1.5.87c3-1.73,9.21-.51,16.39,3.67Z"/><g class="cls-9"><path class="cls-8" d="M263.65,169l15-8.65c0-5.86-8.24-15.37-18.36-21.25l-15,8.65c10.13,5.88,18.35,15.4,18.36,21.25Z"/></g><polygon class="cls-8" points="245.29 147.7 240.71 145.04 225.72 153.7 230.3 156.36 245.29 147.7"/><g class="cls-9"><path class="cls-2" d="M209.33,150a35.19,35.19,0,0,0-8.47,7,42.84,42.84,0,0,0-6,8.83c-3.74,7.61-4.95,14.39-3.82,21.33.7,3.9,4.74,8.57,11.28,12.37-2.72-15.29,8.49-37.3,23.38-45.89-7.18-4.18-13.39-5.4-16.39-3.67Z"/><path class="cls-2" d="M202.34,199.59c-.93-5.27-.22-11.34,1.73-17.38l-.51-.7c-5.35-8.54-.68-16.58,9.44-16.24a44.31,44.31,0,0,1,12.72-11.57c-7.18-4.18-13.39-5.4-16.39-3.67l-1.82,1.14c-.59.42-1.38,1-1.95,1.42L203.93,154c-.48.46-1.14,1.07-1.62,1.54l-1.45,1.56c-.42.5-1,1.15-1.39,1.66l-1.28,1.7c-.36.53-.85,1.23-1.2,1.77l-1.1,1.83c-.31.56-.73,1.3-1,1.87L194,167.8c-.25.59-.59,1.37-.82,2l-.71,2c-.19.62-.45,1.43-.62,2l-.48,2c-.11.65-.29,1.5-.38,2.15l-.22,2.07c0,.7-.09,1.64-.09,2.35l.08,2.05c.09.84.21,1.95.34,2.78.7,3.9,4.74,8.57,11.28,12.37Z"/><path class="cls-6" d="M202.34,199.59c-.13-.76-.23-1.54-.3-2.33l-.63-.39c-21.61-14-3.74-42.22,8.54-44.7,6-1.21,11.69,1.89,13.57,2.91.72-.49,1.46-1,2.2-1.38-7.18-4.18-13.39-5.4-16.39-3.67l-1.82,1.14c-.59.42-1.38,1-1.95,1.42L203.93,154c-.48.46-1.14,1.07-1.62,1.54l-1.45,1.56c-.42.5-1,1.15-1.39,1.66l-1.28,1.7c-.36.53-.85,1.23-1.2,1.77l-1.1,1.83c-.31.56-.73,1.3-1,1.87L194,167.8c-.25.59-.59,1.37-.82,2l-.71,2c-.19.62-.45,1.43-.62,2l-.48,2c-.11.65-.29,1.5-.38,2.15l-.22,2.07c0,.7-.09,1.64-.09,2.35l.08,2.05c.09.84.21,1.95.34,2.78.7,3.9,4.74,8.57,11.28,12.37Z"/></g><path class="cls-2" d="M241.09,243.76l-6.77-38c-5,3.94-17.27,2.37-27.4-3.51l6.77,38c10.12,5.88,22.39,7.45,27.4,3.51Z"/><path class="cls-8" d="M248.66,177.61l15-8.66c0-5.85-8.23-15.37-18.36-21.25l-15,8.66c10.12,5.88,18.34,15.4,18.36,21.25Z"/><g class="cls-9"><path class="cls-6" d="M230.3,156.36l-4.58-2.66c-.74.43-1.48.89-2.2,1.38l4.58,2.66c.73-.49,1.46-1,2.2-1.38Z"/><path class="cls-2" d="M228.1,157.74l-4.58-2.66A46.46,46.46,0,0,0,213,165.27l4.58,2.66a46.46,46.46,0,0,1,10.52-10.19Z"/><path class="cls-2" d="M217.58,167.93,213,165.27a57.48,57.48,0,0,0-8.93,16.95l4.58,2.66a57.61,57.61,0,0,1,8.93-16.95Z"/><path class="cls-2" d="M208.65,184.88l-4.58-2.66a39,39,0,0,0-2,15l4.58,2.66a39,39,0,0,1,2-15Z"/><path class="cls-6" d="M206.62,199.92,202,197.26c.07.79.17,1.57.3,2.33l4.58,2.66c-.13-.76-.23-1.54-.3-2.33Z"/></g><path class="cls-6" d="M248.66,177.61c-9.14,5.29-16,18.75-14.34,28.15q3.39,19,6.77,38c1.75,9.81,10,12.94,19.52,7.42l3.27-1.89,3.27-1.89c9.56-5.52,17.73-18.1,19.42-29.9q3.27-22.84,6.53-45.68c1.61-11.28-5.31-16.8-14.45-11.52l-15,8.65Z"/><g class="cls-9"><path class="cls-2" d="M248.66,177.61c0-5.85-8.24-15.37-18.36-21.25-14.89,8.6-26.1,30.6-23.38,45.89,10.13,5.88,22.39,7.45,27.4,3.51-1.66-9.4,5.2-22.86,14.34-28.15Z"/><path class="cls-2" d="M234.32,205.76c-1.66-9.4,5.2-22.86,14.34-28.15,0-5.85-8.24-15.37-18.36-21.25a44.31,44.31,0,0,0-12.72,11.57l.55,0c16.78,1.25,16.77,14.83,7.87,22.69-6,5.32-14.43-1.74-17.35-5.78-2,6-2.66,12.11-1.73,17.38,10.13,5.88,22.39,7.45,27.4,3.51Z"/><path class="cls-6" d="M234.32,205.76c-1.66-9.4,5.2-22.86,14.34-28.15,0-5.85-8.24-15.37-18.36-21.25-.74.43-1.47.89-2.2,1.38l.64.37c3.58,2.17,11.77,8,10.43,15.79-.83,4.84-11.47,23.81-11.57,24-1.76,2.84-3.49,4.74-6.68,5.47-1.8.42-6.81.91-14.3-3.43.07.79.17,1.57.3,2.33,10.13,5.88,22.39,7.45,27.4,3.51Z"/></g><path class="cls-10" d="M194.39,183.1c0-4.45,2.34-9.41,5.19-11.07h0l1.29-.75a3,3,0,0,1,3.06-.2,25.5,25.5,0,0,1,11.7,21.38,3.07,3.07,0,0,1-1.69,2.47l-1.29.75c0-.52,0-1.05,0-1.58h0c0,.53,0,1.06,0,1.58-2.85,1.65-8.31,1-12.18-1.42C200.73,190.23,197.9,185.11,194.39,183.1Z"/><g class="cls-9"><g class="cls-9"><path class="cls-2" d="M208,266.79c.2-.13.48-.29.67-.43a10.18,10.18,0,0,0,1.06-.89,9,9,0,0,0,1.75-2.39,11.3,11.3,0,0,0,.78-2,12,12,0,0,0,.46-2.73,3.08,3.08,0,0,1-1.69,2.49C210.89,263.74,209.77,265.79,208,266.79Z"/><g class="cls-26"><g class="cls-9"><path class="cls-2" d="M208,266.79c2.93-1.89,4.39-4.49,4.72-8.44a3.08,3.08,0,0,1-1.69,2.49c-.18,2.9-1.3,5-3,6Z"/></g></g></g><g class="cls-9"><path class="cls-2" d="M206.75,267.54l1.29-.75c1.73-1,2.85-3.05,3-6l-1.29.75C209.6,264.49,208.48,266.54,206.75,267.54Z"/><g class="cls-27"><g class="cls-9"><path class="cls-2" d="M206.75,267.54l1.29-.75c1.73-1,2.85-3.05,3-6l-1.29.75c-.18,2.9-1.3,5-3,6Z"/></g></g></g><g class="cls-9"><g class="cls-9"><path class="cls-7" d="M187.2,252.15c.91,11.27,11.69,19.76,19.55,15.39,1.73-1,2.85-3.05,3-6-2.85,1.65-8.3,1-12.17-1.56-.12,2-1.62,2.76-3.44,1.72a7.54,7.54,0,0,1-3.42-5.54c-2.25-1.18-3.47-2.68-3.55-4.06Z"/></g></g><g class="cls-9"><path class="cls-7" d="M190.75,256.21l-2.5-69.15c-2.27-1.14-3.49-2.62-3.54-4l.13,3.45L185,190h0l.13,3.45.12,3.45h0l.13,3.46.12,3.45h0l.13,3.45.12,3.45h0l.12,3.46.13,3.45h0l.12,3.45.13,3.45h0l.12,3.45.13,3.45h0l.12,3.45.13,3.45h0l.12,3.45.12,3.45h0l.13,3.45.12,3.45h0c.05,1.39,1.28,2.91,3.55,4.1Z"/></g><g class="cls-9"><g class="cls-9"><path class="cls-8" d="M213.94,194.93l-2.87,65.91a3.06,3.06,0,0,0,1.69-2.54l.15-3.29.14-3.29h0l.14-3.3.15-3.29h0l.14-3.29.14-3.3h0l.15-3.29.14-3.29h0l.14-3.3.15-3.29h0l.14-3.3.15-3.29h0l.14-3.3.14-3.29h0l.15-3.3.14-3.29h0l.14-3.3.15-3.29h0l.14-3.3.14-3.3h0a3,3,0,0,1-1.69,2.52Z"/></g></g><g class="cls-9"><path class="cls-8" d="M200.76,171.22a.88.88,0,0,0,.23,0,2.89,2.89,0,0,1,2.95-.14l-1.05-.56c-.42-.19-1-.44-1.4-.61l-1-.36c-.46-.12-1.08-.27-1.56-.37l-1-.14c-.5,0-1.17,0-1.67,0l-1,.09c-.5.1-1.18.24-1.67.37l-.9.33c-.35.17-.82.39-1.16.58,2.36-1.38,5.62-1.21,9.25.85Z"/></g><polygon class="cls-8" points="209.78 261.59 211.07 260.84 213.94 194.93 212.65 195.68 209.78 261.59"/><g class="cls-9"><path class="cls-2" d="M199.58,172l1.41-.81c-3.63-2.06-7.12-2.23-9.48-.85l-1.29.75c2.36-1.37,5.62-1.21,9.25.85Z"/></g><path class="cls-2" d="M194.39,183.1c-3.52-2-6.37-.21-6.14,4,.84,23.15,1.67,46.15,2.5,69.15a7.54,7.54,0,0,0,3.42,5.54c1.82,1,3.32.3,3.44-1.72.95-21.83,1.91-43.8,2.86-65.77C200.73,190.23,197.9,185.11,194.39,183.1Z"/><g class="cls-9"><path class="cls-8" d="M200.47,194.26,197.61,260c3.87,2.52,9.32,3.21,12.17,1.56l2.87-65.91c-2.85,1.65-8.31,1-12.18-1.42Z"/></g><path class="cls-10" d="M215.63,192.46c0-.36,0-.84,0-1.2s0-1-.06-1.48c-.08-.73-.22-1.69-.35-2.41-.07-.41-.21-.94-.31-1.35a25.4,25.4,0,0,0-2.35-5.8,26.77,26.77,0,0,0-3.6-5,22.24,22.24,0,0,0-5.06-4.11,3,3,0,0,0-3.06.2c7.59,4.39,13.58,15.22,13.07,23.65A3.07,3.07,0,0,0,215.63,192.46Z"/><path class="cls-10" d="M200.47,194.26c3.87,2.44,9.33,3.07,12.18,1.42.51-8.43-5.48-19.26-13.07-23.65-2.85,1.66-5.18,6.62-5.19,11.07C197.9,185.11,200.73,190.23,200.47,194.26Z"/><path class="cls-2" d="M184.72,181.11a13.16,13.16,0,0,1,.18-1.66A13.4,13.4,0,0,1,186,175.8a11,11,0,0,1,.87-1.53,16,16,0,0,1,1.22-1.5,12,12,0,0,1,1.32-1.14c.23-.17.56-.36.8-.51,2.39-1.39,5.69-1.2,9.36.91-2.85,1.66-5.18,6.62-5.19,11.07-3.52-2-6.37-.21-6.14,4-2.24-1.13-3.46-2.59-3.53-3.94C184.7,182.51,184.69,181.71,184.72,181.11Z"/></g><path class="cls-8" d="M194.39,183.1a15.62,15.62,0,0,1,3.27-9.38c0,.05,0,.12,0,.18a10,10,0,0,0,1.32,3.46l.78,1.3c.79,1.33,1.59,2.65,2.39,4l2.94,4.91,2.4,4c.22.37.42.74.66,1.1a4,4,0,0,0,3.36,1.4,4.12,4.12,0,0,0,2.73-1.31,2.84,2.84,0,0,0,.41-1.32,8.78,8.78,0,0,0,.17-1.77,14.15,14.15,0,0,0-.28-2.83,21.33,21.33,0,0,0-.83-3,26,26,0,0,0-1.32-3,25.41,25.41,0,0,0-1.73-2.87,22.15,22.15,0,0,0-2.08-2.56,17.22,17.22,0,0,0-2.35-2.08,11.9,11.9,0,0,0-2.56-1.43,8.38,8.38,0,0,0-2.69-.63,2.87,2.87,0,0,1,2.94-.14c.38.22.87.54,1.24.78l1,.71c.32.25.73.6,1,.86l.9.84c.28.27.63.64.9.92l.81.93c.24.29.54.69.77,1l.72,1c.21.31.47.73.67,1l.63,1.07c.18.32.4.77.57,1.1l.52,1.12c.15.35.34.82.48,1.17l.41,1.16c.12.38.26.88.37,1.25l.28,1.2c.08.4.17.94.24,1.35l.14,1.21c0,.44.05,1,.06,1.48s0,.84,0,1.2a3.07,3.07,0,0,1-1.69,2.47l-1.29.75c-2.85,1.65-8.31,1-12.18-1.42C200.73,190.23,197.9,185.11,194.39,183.1Z"/><g class="cls-9"><path class="cls-8" d="M271,158.21c14.78-9.12,18.18-20.51,19.46-24.8-1.59,5.85-6.18,11.49-13.8,16.07-19.82,11.93-52.63,12.26-73.29.74-8.54-4.76-13.67-10.81-15.34-17.1.87,2.85,3.51,11.53,10.81,18.32,5.72,5.32,11.47,9.28,22.44,12.6,15.91,4.81,36.35,2.41,49.72-5.83Z"/></g><path class="cls-13" d="M265.49,69.39c-17.4-9.46-37.06-9.13-53.92.89,7-4.22,16.82-3.9,27.86,2.26-11-6.16-20.85-6.48-27.86-2.26a55,55,0,0,0-13,10.91,53.89,53.89,0,0,0-8.46,13.26,54.74,54.74,0,0,0-4.45,17c-.68,8.36.31,12.91,1.56,18.67,1.74,6.55,6.94,12.69,15.62,17.52,21,11.69,54.27,11.36,74.38-.75,7.74-4.65,12.39-10.37,14-16.31,1-4.59,2.22-9.79,1.87-16.15a53.77,53.77,0,0,0-27.63-45Z"/><path class="cls-5" d="M221.56,133.82c.09.68,2.32,16.6,21.47,18,12.84-.09,25.69-3.17,35.16-9.14a36.06,36.06,0,0,0,7-5.65C297.49,121,290.24,94.24,278,96.69c-1.37.27-1.37.27-4,2.25a26.73,26.73,0,0,1-5.21,4.22c-7.08,4.46-16.67,6.76-26.26,6.83-15.2,1.84-22,15.26-20.95,23.83Z"/><g class="cls-9"><path class="cls-8" d="M290.47,133.44l.77-2.85c-1.62,5.93-6.27,11.64-14,16.29-20.11,12.11-53.42,12.44-74.38.75-8.67-4.83-13.87-10.95-15.57-17.33l.76,2.84c1.68,6.29,6.8,12.32,15.33,17.08,20.66,11.52,53.47,11.19,73.29-.74,7.61-4.58,12.2-10.2,13.8-16Z"/></g><path class="cls-11" d="M281.38,118.26c2.13,5.3,5,6.5,6.54,2.73,2.93-7.18-2.43-18.74-6.63-17.29a2.36,2.36,0,0,0-1,.79c-2,3.38-.12,10.74,1.1,13.77Z"/><path class="cls-11" d="M240.67,131c.64,8.12,8.65,11.57,13.4,5.77,5-6.15.89-17.57-6.32-17.45-5.39.85-7.42,7.47-7.08,11.68Z"/><path class="cls-11" d="M265,139.92c.89,5.07,8,4.28,11.7-1.32a8.47,8.47,0,0,0,1.62-5.55s-.08,0-.12,0A55.5,55.5,0,0,1,265,139a4.39,4.39,0,0,0,.07.9Z"/><path class="cls-10" d="M253.64,68.69c-8.24-4.6-21.34-4.47-29.25.29s-7.64,12.35.61,17,21.34,4.46,29.25-.3S261.88,73.29,253.64,68.69Z"/><path class="cls-11" d="M208,133.35c2.14,9-3.95,12.51-10.66,6.16a18.15,18.15,0,0,1-5.16-8.95c-2.15-9,3.94-12.5,10.65-6.15A18.17,18.17,0,0,1,208,133.35Z"/><path class="cls-28" d="M380.24,197.16a.77.77,0,0,1-.33-.6c0-.33.5-.49.78-.53a2.73,2.73,0,0,1,1.38.24c.57.24,1.09.57,1.68.76a1,1,0,0,0,.5.05.39.39,0,0,0,.31-.36c0-.32-.52-.58-.74-.74a8.61,8.61,0,0,0-1.11-.7,6.36,6.36,0,0,0-2-.78c-.73-.1-1.53.05-2.29,0a1.34,1.34,0,0,1-.44-.1,1.18,1.18,0,0,1-.48-.53c-.13-.22-.25-.46-.36-.69a.18.18,0,0,1,0-.14.22.22,0,0,1,.1-.13,13.57,13.57,0,0,1,2.86-1.21c.68-.25,1.37-.49,2.05-.72a1.31,1.31,0,0,1,.51-.09,1.26,1.26,0,0,1,.49.21c.48.26,1,.42,1.51.63a16.23,16.23,0,0,1,4.66,3.23c.95.85,1.92,1.7,2.82,2.57.74.72.29,2.1-.37,2.7a3.27,3.27,0,0,1-.48.35,2.86,2.86,0,0,1-2.15.16c-.36-.1-2-.71-2.52-.85a23,23,0,0,1-6-2.48Z"/><path class="cls-6" d="M420,201.57c5.42-3.53,7.51-9.21,5.54-11.09-3.38-3.22-6.31-1.07-14,5.65l-.51.44c-1.89,1.62-3.77,3.25-5.51,5a29.43,29.43,0,0,0-2.73,3.17c-.19.26-.38.53-.55.8a3.65,3.65,0,0,0-.32.93,9.17,9.17,0,0,0-.49,2.48,3.63,3.63,0,0,0,1.11,2.85,3.59,3.59,0,0,0,3.42.48c1.28-.43,5.89-1.32,9.28-4.62C417.49,205.54,413.05,206.12,420,201.57Z"/><path class="cls-6" d="M390.25,197.57c.33-.48.64-.8,1.21-.67a6.6,6.6,0,0,1,1.64.65,28.46,28.46,0,0,1,3.06,2c1.32.92,2.66,1.67,4,2.5a32.86,32.86,0,0,1,2.9,1.9c1.74,1.26,5.59,4.16,3.76,6.71a4.17,4.17,0,0,1-3.4,1.65c-.92-.13-2-1.21-2.72-1.73-1.64-1.19-3.25-2.43-4.86-3.68-2-1.51-3.83-3.26-5.82-4.78-.8-.62-1.35-.69-1.08-1.86a8.67,8.67,0,0,1,1.18-2.59Z"/><path class="cls-17" d="M444.09,193.83c0-1.09.08-2.17.11-3.26a32.33,32.33,0,0,0-.34-6.74,20.46,20.46,0,0,0-2.93-7.49,5,5,0,0,0-.76-1c-.75.11-1.71-.13-2.39.23-1,.53-1.72,2.28-2.15,3.27a14.11,14.11,0,0,0-.95,8.55,19.76,19.76,0,0,0,1.1,3,17,17,0,0,0,1.6,3.59,6.23,6.23,0,0,0,3.85,2.86,2.49,2.49,0,0,0,2.3-.56,3.32,3.32,0,0,0,.56-2.4Z"/><path class="cls-29" d="M443.56,193.31a75.92,75.92,0,0,1-9.38-5c-.35-.24-2,.83-2.4.74a15.52,15.52,0,0,0-9.39.76l-.1,0v19.26h18.46Z"/><path class="cls-29" d="M436.6,191.84s-11.49,5.77-10.94-.61c.77-8.89,1.34-9.88,5.33-11,1.09-.31,1.52-1.23,2.65-1.19,4.12.17,2.39,2.32,2.14,3.88C435,187.52,436.68,189.39,436.6,191.84Z"/><path class="cls-8" d="M426.23,188.39h-.16C426.53,188.26,426.79,188.38,426.23,188.39Z"/><path class="cls-8" d="M449.47,199.94c0,.35,0,.72,0,1.1a18.33,18.33,0,0,1-.56,3.13,11.08,11.08,0,0,1-1.52,3.38c-.7,1.12-1.27,2.26-2,3.38a29.92,29.92,0,0,0-1.61,3.5,34.05,34.05,0,0,0-2.84,8.43,32.82,32.82,0,0,0-.26,7.14,30.09,30.09,0,0,1,.2,3.4,8.51,8.51,0,0,1,0,1.13c-.08.41-.29.56-.67.85a15.66,15.66,0,0,1-7,3,25.68,25.68,0,0,1-8.26-.18c-.78-.13-1.51-.28-2.22-.44a25.43,25.43,0,0,1-5.84-2c-.57-.44-.32-.31.16-4.47,2-17.05-5.53-17.36-2.6-26.29.5-1.52,1.53-3,2.16-4.49,2.33-5.59.87-11.82,9.43-12.13-.53.17-5.49,8.51.48,11,3.84,1.58,11.45-2.63,13.23-7.86,2.53,1.19,4.83,1.94,7,3.5A6.23,6.23,0,0,1,449.47,199.94Z"/><path class="cls-30" d="M433.56,312.15c0,.39-.47,1-.64,1.33-.33.67-.74,1.34-1,2a21,21,0,0,0-.77,2.85l-1.5,5.64a11.2,11.2,0,0,0-.44,2.28,3.75,3.75,0,0,0,.49,2.23c.75,1.19,2.24,1.65,3.61,2a3.68,3.68,0,0,0,2.43,0,3.46,3.46,0,0,0,1.31-1.42,32.87,32.87,0,0,0,3-8.14,12.64,12.64,0,0,0,.61-4.59,5.91,5.91,0,0,0-.77-2.46,4.79,4.79,0,0,0-.84-1.06c-.33-.3-.65-.43-.87-.83a8.85,8.85,0,0,0-1.35-2.27,2.1,2.1,0,0,0-2.2-.13,3.15,3.15,0,0,0-1.48,1.8c0,.24.37.46.4.7Z"/><path class="cls-30" d="M416.29,315.27a10.2,10.2,0,0,1,1.69-2.79,41.06,41.06,0,0,1,2.92-3c1.32-1.29,2.58-2.63,3.77-4,.07-.09.16-.18.24-.27s4.26-4.6,7.92,0a3.27,3.27,0,0,1,.46,1.85,4.1,4.1,0,0,1-1.1,3.1,15.06,15.06,0,0,1-3.23,2,8.93,8.93,0,0,0-3.08,3.43,9.56,9.56,0,0,1-3.24,3.36,3.94,3.94,0,0,1-2.81.66,7,7,0,0,1-3.54-2.94A1.47,1.47,0,0,1,416.29,315.27Z"/><path class="cls-3" d="M412.79,257.87c.33-3.77-.4-14.16,3.29-24.63l10,1.64c7.69,6.31.63,27.11-.44,31.91-.54,2.45-1,6-1.58,8.42-1.09,4.52-5.36,7.61-7.55,7.82-4.48.43-3.5-6-3.62-8.55A127.87,127.87,0,0,1,412.79,257.87Z"/><path class="cls-3" d="M413.2,280.66c.93,2.16,2.24,3.65,3.64,6.15,2.65,4.77,5.2,8.71,6.67,14,.34,1.21.66,2.42,1,3.62.4,1.44,1,3.07,2.48,3.55a3.75,3.75,0,0,0,2.44-.17,5.74,5.74,0,0,0,2.81-2.37c.8-1.3.19-2.26-.29-3.53-1.43-3.84-.7-8.17-1.37-12.22a34.87,34.87,0,0,0-1.72-5.92,25.73,25.73,0,0,0-6.31-9.75,3.15,3.15,0,0,0-2.64-1.23Z"/><path class="cls-31" d="M444.52,248.3a57.44,57.44,0,0,0-.59-8.39c-.29-2.09-1.95-7.81-1.95-7.81s-8.53,3.67-11.23,3.93a20.69,20.69,0,0,1-7.16-.08c-1.18-.23-1.27-.17-1.26,1a30.71,30.71,0,0,0,1,5.06c1.22,6.21,3.08,12.42,4.05,18.66.79,5.09.56,10.5,1.26,15.67a20.23,20.23,0,0,0,2.47,6.28c1.16,2.2,2.32,3.42,4.46,3.18a5.87,5.87,0,0,0,3.18-2,10.08,10.08,0,0,0,.61-2.19q.85-2.68,1.44-5.44L441,275a.69.69,0,0,1,0-.13c1-4.89,1.51-9.9,2.24-14.82A70.86,70.86,0,0,0,444.52,248.3Z"/><path class="cls-31" d="M428.67,274.47c.42,5.66,2.71,9.76,3.67,15.35a80.28,80.28,0,0,1,1.07,17.52c-.06,1.24-.09,2.5-.2,3.74a8.27,8.27,0,0,0,.05,3.29,3.42,3.42,0,0,0,2.37,1.82,6,6,0,0,0,2.26.29,3.62,3.62,0,0,0,2-.81,3.29,3.29,0,0,0,.79-1.89c.28-1.38.16-2.74.33-4.11a33,33,0,0,1,.73-3.5c.63-2.59,1.53-5.13,1.92-7.78a40.47,40.47,0,0,0,.25-6.7,41.83,41.83,0,0,0-3.37-14.48c-.43-1-.56.19-1.6,0Z"/><path class="cls-3" d="M416.32,233.49c.43-1.45.83-2.77.83-2.77s5.22,4.63,12.24,4.12c6.72-.5,11.54-4.37,11.35-4.73.43.65.84,1.32,1.24,2C434.71,238.41,424,238.24,416.32,233.49Z"/><path class="cls-28" d="M432.34,186.32c.31-.21.62-.43.92-.68l.4-.35a21.28,21.28,0,0,0,2.69-3.81,11,11,0,0,0,1.58-4.5,10.34,10.34,0,0,0-2.54-8.65,10.14,10.14,0,0,0-9.83-2.69,14.77,14.77,0,0,0-2.68,1.09,7.09,7.09,0,0,0-2,1.41,7,7,0,0,0-.93,1.36,12.43,12.43,0,0,0-1,2.65,5.73,5.73,0,0,0-.1,1.6,14.38,14.38,0,0,0,.25,2.78,14,14,0,0,1,.28,2.31,6.54,6.54,0,0,1-.62,2.18,3.22,3.22,0,0,0-.28,1.59c.15.5.68.89.92,1.34a2.68,2.68,0,0,1,.37,1.39,2.23,2.23,0,0,0,.27.91,2.25,2.25,0,0,1,.09.73,5,5,0,0,0,.41.88,7.41,7.41,0,0,0,.41,1c1,1.85,2.51,2,4.36,1.25a26.21,26.21,0,0,0,4.09-2.08C430.35,187.41,431.38,186.94,432.34,186.32Z"/><path class="cls-11" d="M441.26,173.81a10,10,0,0,0-.47-2.53,9.78,9.78,0,0,0-1-2.25A6.55,6.55,0,0,0,439,168c-.26-.29-.8-.59-.94-.94,0-.05-1.5-3.71-8.3-3.7a14,14,0,0,0-7.23,2.27,7.1,7.1,0,0,0-3.22,3.49,12.4,12.4,0,0,0-1,5.31,1.1,1.1,0,0,0,.22.77c.28.3.77.23,1.17.13a15.87,15.87,0,0,0,4.09-1.65c.62-.35,2.25-1.11,3-.78s.15,1.82.38,2.5a4.25,4.25,0,0,0,1.59,2.18,21.32,21.32,0,0,0,2.18,1.12,3,3,0,0,1,1.6,1.76c.2.84-.08,2,.67,2.41s3.33-1.51,3.21-1.3c-.59,1-.51.83-.73,2.59a11.7,11.7,0,0,0,5.51-8A10.24,10.24,0,0,0,441.26,173.81Z"/><path class="cls-28" d="M435.46,178.19c1.79-.11,2.23,2.11,1,3.81a8.87,8.87,0,0,1-1.46,1.34c-3.22,2.71-4-.24-3-1.16C434.38,180,433.21,178.33,435.46,178.19Z"/><path class="cls-29" d="M434.3,182.25c.21-.19,2.25-1.38.87-2.21a.63.63,0,0,0-.88.52c0,.21,0,.42,0,.63a1,1,0,0,1-.14.35c-.18.3-.8.58-.68,1S434.19,182.36,434.3,182.25Z"/><path class="cls-28" d="M444.54,225.13a2.12,2.12,0,0,1-.62.47,1.7,1.7,0,0,1-1.21.1,3,3,0,0,1-1.21-1,24.15,24.15,0,0,0-1.76-1.89.79.79,0,0,0-.57-.31.53.53,0,0,0-.42.39c0,.13.07.77,0,.79s-.56-.2-.72-.25-.58-.18-.87-.26a15.39,15.39,0,0,0-1.82-.34,13.87,13.87,0,0,0-3.64.06.73.73,0,0,0-.31.09.28.28,0,0,0-.14.27c0,.12.13.19.23.25a9.81,9.81,0,0,0,2.62.73c.37.09.7.28,1.07.39a8.55,8.55,0,0,1,1.41.54,21.31,21.31,0,0,0-4.51-.54c-.31,0-1,0-1.23.31s.41.67.68.77l2.47.89a6.36,6.36,0,0,0-2.87-.31c-.46.05-.8.06-.68.61a1,1,0,0,0,.76.75c.57.1,1.14.18,1.71.31a11.77,11.77,0,0,1,2.32.72,7.52,7.52,0,0,0-1.89.29,2.54,2.54,0,0,0-1.37.94c-.19.31-.23.92.24,1a12.9,12.9,0,0,0,1.52,0,16.4,16.4,0,0,1,3.21,0c1.54.22,2.93,1.1,4.48,1.31a7.18,7.18,0,0,0,4-.82,35.78,35.78,0,0,0,3.11-2.27,9,9,0,0,0,1.92-1.2c.61-.62,1.2-1.27,1.76-1.94a2,2,0,0,0,.57-1.09,1.76,1.76,0,0,0-.89-1.41,5.49,5.49,0,0,0-2.12-.91,3.43,3.43,0,0,0-2.17,0,12.61,12.61,0,0,0-2.43,1.95C445,224.68,444.76,224.92,444.54,225.13Z"/><path class="cls-13" d="M447.1,195.1l-.52-.4a1.72,1.72,0,0,0-3,.63,12.08,12.08,0,0,0-.86,4.22,17.89,17.89,0,0,0,.09,4.39c.23,1.3.74,3,1.83,3.87s2.07,1.67,3.1,2.53c2.07,1.71,4.17,3.39,6.31,5a16.11,16.11,0,0,0,3.26,2.32c3.31,1.35,6.55-.39,7.12-2.86a4.41,4.41,0,0,0-.55-2.79,15.19,15.19,0,0,0-2.49-3.11c-1-1.15-2.06-2.28-3.1-3.41a94.79,94.79,0,0,0-8.73-8.63C448.74,196.22,447.9,195.7,447.1,195.1Z"/><path class="cls-13" d="M447.7,229.53c1.49.42,2.52-.7,3.49-1.47,2.29-1.79,10.85-7.66,13.08-12.79.54-1.24-2.54-2.42-4-3.67-1-.85-2.67-.4-3.75,0-1.35.43-11.92,12.68-12.12,13.37C444,226.38,446.56,229.21,447.7,229.53Z"/><path class="cls-28" d="M337,244.65a2.65,2.65,0,0,0-2.68-1.87l-.12-.14c-.2-.21-.41-.41-.62-.61h0a57.92,57.92,0,0,0-5.69-4.7,1.73,1.73,0,0,0-.63-.33.65.65,0,0,0-.66.17.69.69,0,0,0-.15.44c0,.51.53.94.88,1.3a30.33,30.33,0,0,0,3.05,2.69,1,1,0,0,0-.4.21,1,1,0,0,0-.26,1,1,1,0,0,0-1.06.4,1.13,1.13,0,0,0,0,1.2c-.39-.07-.73.36-.73.78a1.91,1.91,0,0,0,.45,1.13c1.88,2.7,4.48,3.63,6.8,5.92.48-.28,1-.27,1.16-.81a5.88,5.88,0,0,1,1-1.82v-.07s.06.07.09,0a1.59,1.59,0,0,0,.59-1A25.42,25.42,0,0,0,337,244.65Z"/><path class="cls-15" d="M388,365.82a6.8,6.8,0,0,1-.3,2.1,7.48,7.48,0,0,0-.14,1.24,1.83,1.83,0,0,1-.36,1,1.37,1.37,0,0,1-.8.45,6.47,6.47,0,0,1-1.81.07c-.49,0-.91,0-1.05-.58a7.64,7.64,0,0,1,0-1.85,4.45,4.45,0,0,1,0-1.41c.26-.68,1.68-1,2.28-1.28.38-.16,1.18-.19,1.41-.55C387.56,364.48,387.89,365.44,388,365.82Z"/><path class="cls-29" d="M379.77,357.2a7.18,7.18,0,0,1-.2.92,13.53,13.53,0,0,1-1.19,2.89,1.76,1.76,0,0,1-.66.81,10.66,10.66,0,0,1-1.25.39c-.22.07-.46.29-.7.35a2.05,2.05,0,0,0-.55.16,4.88,4.88,0,0,1-.54.18,1,1,0,0,0-.7.74,3.13,3.13,0,0,0,0,.75.8.8,0,0,0,.35.74,3.21,3.21,0,0,0,1.45,1,5.45,5.45,0,0,0,.7,0,9,9,0,0,0,4.59-1.52,44,44,0,0,0,4.27-2.45c.4-.29.88-.46,1.27-.76.21-.15.22-.15.22-.41a2.61,2.61,0,0,0-.37-1.1,3.76,3.76,0,0,1-.42-1.86,14.23,14.23,0,0,1,.11-2.35,17.93,17.93,0,0,1,1-3.61c.24-.61.55-1.17.77-1.79.28-.8.66-1.59.89-2.4a19,19,0,0,0,.56-2.68,26.65,26.65,0,0,0,.18-5.43,62.35,62.35,0,0,0-1.52-9.38,8.88,8.88,0,0,1-.37-2.39c0-.52.26-1,.3-1.52.14-1.64-.71-3.26-.82-4.88a6.41,6.41,0,0,0-.6-3.16c-1.06-1.65-3.51-1.89-5.28-1a9,9,0,0,0-3.45,3c-.81,1.22-.88,3-1,4.45a44.8,44.8,0,0,0,0,5.31c.29,4.23,1.18,8.38,1.82,12.56.23,1.49.38,3,.57,4.47.17,1.33.45,2.68.56,4,.08,1,.05,2,.05,3A19.84,19.84,0,0,1,379.77,357.2Z"/><path class="cls-5" d="M387.2,360.65a1.39,1.39,0,0,1,.35.37,6.65,6.65,0,0,1,1,2.73,3.4,3.4,0,0,1-.87,3,3.23,3.23,0,0,1-2.09.94,10.52,10.52,0,0,1-2.93-.54,6.17,6.17,0,0,0-2.67,0c-.38.1-.75.15-1.13.28a5.43,5.43,0,0,1-1.31.31,6.31,6.31,0,0,1-2.75-.65,3,3,0,0,1-1.47-1.52,4.52,4.52,0,0,1-.55-2.34,2,2,0,0,1,.14-.53,2.3,2.3,0,0,1,.34-.66,2.94,2.94,0,0,1,2.69-.62,8.12,8.12,0,0,1,1.75.36c-.56.24-1.18.19-1.31.85-.35,1.9,2.29,2,3.45,1.84a10.15,10.15,0,0,0,3.56-1.49,23.58,23.58,0,0,0,2.24-2.13C386.16,360.47,386.71,360.3,387.2,360.65Z"/><path class="cls-28" d="M365.85,372.87a28.16,28.16,0,0,0,2.79-4c.84-1.41.36-3.64.15-5.16-.49-3.72-1.06-7.41-1.8-11.09a49.53,49.53,0,0,1-1-7.58c-.16-3.6.13-7.12-.41-10.7a19.72,19.72,0,0,1,0-3.35c0-.87-.07-1.74-.11-2.6a14.27,14.27,0,0,0-.07-2.58l8.56,4.86c1,.25,1.55,1.36,1.92,2.37a30.17,30.17,0,0,1,1.64,8.74,43.56,43.56,0,0,1,0,8.62c-.37,2.55-.8,5.1-1.23,7.64-.4,2.37-1,4.9-.77,7.32a9.13,9.13,0,0,0,.88,3.24c.21.4.67.72.78,1.14-.86.22-1.34,1-2,1.48a22.49,22.49,0,0,1-2.21,1.07,9.62,9.62,0,0,0-1.53,1.16c-.42.36-.93.69-1.3,1.08s-.72.94-1.18,1.34a6.48,6.48,0,0,1-1.51,1,2.65,2.65,0,0,1-2.4.12,1.77,1.77,0,0,1-.7-2.06A5.64,5.64,0,0,1,365.85,372.87Z"/><path class="cls-15" d="M378.51,373.7c-.08,1.7,0,3.44-.18,5.13-.05.67,0,.89-.69,1.15-1,.38-2.85.52-3.52-.58-.49-.8-.22-2.19-.27-3.09a6.71,6.71,0,0,1-.12-2.13c.22-.61,1.38-.43,2-.59a8.38,8.38,0,0,1,1.56-.35A2.09,2.09,0,0,1,378.51,373.7Z"/><path class="cls-5" d="M374.79,370a4.18,4.18,0,0,1,.63-.4,2.92,2.92,0,0,1,.63-.27,1.41,1.41,0,0,1,.64-.09,1.69,1.69,0,0,1,1,.73,7.75,7.75,0,0,1,1,2.39,6.26,6.26,0,0,1,0,2.95,2.57,2.57,0,0,1-2,1.69,7.32,7.32,0,0,1-2.09,0,6,6,0,0,0-2.66.24,4.25,4.25,0,0,0-.49.21c-.5.24-1,.45-1.54.64a12.16,12.16,0,0,1-1.43.51,6.5,6.5,0,0,1-4.07-.52,5.18,5.18,0,0,1-1.59-.94,3.8,3.8,0,0,1-1.09-1.78,3.15,3.15,0,0,1,.25-2.57,2.34,2.34,0,0,1,2-.84,6.67,6.67,0,0,1,1.08.22,6.51,6.51,0,0,1,1.15.31c-.26.61-.86,1.07-1.1,1.74a1.24,1.24,0,0,0,.36,1.3c.31.34,1,.3,1.41.25a12.72,12.72,0,0,0,3.22-1.59c.74-.65,1.44-1.3,2.11-2A16.68,16.68,0,0,1,374.79,370Z"/><path class="cls-32" d="M387.39,241.51a2.92,2.92,0,0,1-.44,3.37,6.93,6.93,0,0,1-3.19,2.27,12.75,12.75,0,0,1-10-.55,4.38,4.38,0,0,0-1-.41,1.14,1.14,0,0,0-1,.23c0-.8.66-1.42,1.25-1.83a3.34,3.34,0,0,1,2.27-.32,19.09,19.09,0,0,0,5.12-.26,10.69,10.69,0,0,0,4.13-1.76c.53-.39,1.09-.7,1.29-1.38,0-.06.17-.78,0-.81A2.47,2.47,0,0,1,387.39,241.51Z"/><path class="cls-8" d="M393.45,254.78a33.39,33.39,0,0,0,1.75-10.3c0-2.67.77-6.65-2.36-8.13-1.65-.79-4.07-.32-5.6.53-.5.28-2.46,1.21-2.92,1.4-2.75,1.16-5.43,2.47-8.09,3.83-1.47.75-3,1.39-4.53,2.08a15.68,15.68,0,0,0-5.47,4.3,14.69,14.69,0,0,0-3.14,5.11,16.71,16.71,0,0,0-.56,6.33c.11,1.63,3.51,12.6,1.14,20.06-.77,2.43-.72,3.76,1.51,5.82,1.17,1.07,2.64.56,4,.42s2.85.29,4.39.21c4.05-.22,8.75-.55,12.35-2.63a4.64,4.64,0,0,0,2.66-3.71c0-1.26-.56-1.91-1.22-2.87-1-1.44-.79-3.34-.48-5a35.06,35.06,0,0,1,1.23-4.6q.89-2.64,2-5.19c.95-2.17,2-4.28,2.88-6.49C393.17,255.58,393.31,255.18,393.45,254.78Z"/><path class="cls-28" d="M388.48,234.89c.26.2,0,.68-.06,1a6.09,6.09,0,0,0,0,2.48,6.36,6.36,0,0,1,.2,1,2.44,2.44,0,0,1-.37,1.1c-.87,1.53-3,2-4.54,2.41a12.19,12.19,0,0,1-3.94.45A4.19,4.19,0,0,1,378,243a3.56,3.56,0,0,1-.5-.32c-.59-.49-.48-1.47-.55-2.13a7.39,7.39,0,0,0-.4-2,3.56,3.56,0,0,0-1.22-1.46s5.35-.9,7.95-1.37l4.24-.77a4.48,4.48,0,0,1,.62-.11A.6.6,0,0,1,388.48,234.89Z"/><path class="cls-28" d="M373.36,218.22a6,6,0,0,0-1.68,2.74c-.53,2.06,0,4.19-.41,6.24-.38,1.81.47,4.15.79,6,.21,1.15.49,2.42,1.47,3.05.59.38,1.34.46,1.9.87.35.26,1,.53,1.32.82.93.86,2.39.73,3.54.68a12.45,12.45,0,0,0,3.54-.54c2.11-.75,3.63-2.56,5-4.33,11.31-14.46-8.06-22.86-15.48-15.5Z"/><path class="cls-5" d="M392.5,217.71c-3.84-6.62-13.09-8.8-19-3.48-2.69,2.42-3.37,5.69-1.11,8.5a6.31,6.31,0,0,1,1.18,2.17c.24.68,0,1.37.71,1.88,1.18.87,2-.63,3.25.1,2.51,1.49.43,5.92,2.27,8s6,1.81,8.3.7C394.16,232.6,395.61,223.08,392.5,217.71Z"/><path class="cls-28" d="M378.31,225.78c1.87.17,2,2.55.4,4.12A9.16,9.16,0,0,1,377,231c-3.79,2.29-4.12-.91-2.91-1.7,2.82-1.83,1.89-3.79,4.25-3.56Z"/><path class="cls-29" d="M377.17,229.18c.25-.16,2.57-1.06,1.27-2.15a.65.65,0,0,0-1,.39c-.07.21,0,.45-.11.66a1.05,1.05,0,0,1-.2.34c-.24.28-.93.47-.87.93s.76-.08.9-.17Z"/><path class="cls-5" d="M361.86,301.82A82.15,82.15,0,0,1,364.42,276s13.11,5.62,22.29-.54a31.13,31.13,0,0,1,3.1,6.1c1.36,3.43,1.61,6.44,1.83,10.43A145.83,145.83,0,0,1,391,310.2c-.47,6.14-.38,24.25-2.23,24.69a43.23,43.23,0,0,1-6.07.23s-1.39-8.74-1.76-9.66c-.51,2.29-.21,4.79-.42,7.12a13.26,13.26,0,0,1-.26,2.26c-.22.81-.79,1-1.59,1.12s-7.14,1.28-11.95.05a2.52,2.52,0,0,1-2-2.28C364.47,332.47,362.14,306.6,361.86,301.82Z"/><path class="cls-15" d="M363.89,278c.31-1.31.53-2,.53-2s13.11,5.62,22.29-.54a14,14,0,0,1,.92,1.42C380.89,282.21,371.87,280.57,363.89,278Z"/><path class="cls-13" d="M374.27,251.07a8.21,8.21,0,0,0-1.27-1.66,5.76,5.76,0,0,0-2.1-1.49,5.55,5.55,0,0,0-4,.17,22.14,22.14,0,0,0-3.49,2.72l-7.13,5.64c-1.34,1.06-2.48,1.59-4.13.95a17,17,0,0,1-3.54-2.29c-2-1.38-3.92-2.77-5.85-4.2-1-.76-2-1.64-3.05-2.35a4.25,4.25,0,0,0-2.55-1,3.58,3.58,0,0,0-1.53.74,4.3,4.3,0,0,0-1.45,1.52c-1.09,2.3,1.58,4.39,2.87,5.93a32.91,32.91,0,0,0,3.79,3.77c5.88,5.06,9,7.41,11.32,7.77a8.34,8.34,0,0,0,5-.78,73.74,73.74,0,0,0,8.9-4.75c1.46-.84,2.92-1.68,4.43-2.43a7.18,7.18,0,0,0,3.88-3.57A5.42,5.42,0,0,0,374.27,251.07Z"/><path class="cls-15" d="M398.88,234.31c.05,4.88-1.16,9.67-1.62,14.53s0,10.08,2.84,14a4.93,4.93,0,0,1-5.14-.16,9.73,9.73,0,0,1-3.46-4.09c-2.29-4.52-2.73-9.73-2.93-14.8s-.23-10.23-1.81-15c-.56-1.7-1.31-3.44-1-5.2.64-3.44,4.61-4.31,7.38-2.86,2.23,1.17,3.82,4.79,4.61,7A20.72,20.72,0,0,1,398.88,234.31Z"/><polygon class="cls-31" points="102.85 143.59 90.76 150.58 90.76 136.61 102.85 129.63 102.85 143.59"/><polygon class="cls-33" points="102.86 160.17 90.76 167.16 90.76 153.19 102.85 146.2 102.86 160.17"/><polygon class="cls-7" points="102.86 176.75 90.76 183.73 90.76 169.76 102.86 162.78 102.86 176.75"/><polygon class="cls-11" points="102.86 193.32 90.76 200.31 90.76 186.34 102.86 179.35 102.86 193.32"/><g class="cls-9"><g class="cls-9"><path class="cls-3" d="M391.87,25.13l3.27,1.9c-1.17-.68-2.79-.59-4.56.44l-3.27-1.9C389.08,24.54,390.7,24.45,391.87,25.13Z"/><g class="cls-34"><g class="cls-9"><path class="cls-3" d="M390.58,27.47l-3.27-1.9c1.77-1,3.39-1.12,4.56-.44l3.27,1.9c-1.17-.68-2.79-.59-4.56.44Z"/></g></g></g><polygon class="cls-3" points="332.3 100.38 329.04 98.48 330.31 96.59 333.58 98.49 332.3 100.38"/><polygon class="cls-3" points="311.83 130.6 308.56 128.7 314.88 106.65 318.14 108.55 311.83 130.6"/><polygon class="cls-3" points="318.54 107.18 315.27 105.28 330.31 96.59 333.58 98.49 318.54 107.18"/><polygon class="cls-31" points="333.58 98.49 332.3 100.38 311.83 130.6 318.14 108.55 318.54 107.18 333.58 98.49"/><polygon class="cls-3" points="318.14 108.55 314.88 106.65 315.27 105.28 318.54 107.18 318.14 108.55"/><g class="cls-9"><path class="cls-3" d="M308.32,112l-3.26-1.9c-1.16-.67-1.88-2.09-1.88-4.1l3.27,1.9C306.45,109.93,307.17,111.35,308.32,112Z"/><g class="cls-35"><g class="cls-9"><path class="cls-3" d="M308.32,112l-3.26-1.9c-1.16-.67-1.88-2.09-1.88-4.1l3.27,1.9c0,2,.72,3.43,1.87,4.1Z"/></g></g></g><polygon class="cls-3" points="306.45 107.92 303.18 106.02 303.11 81.56 306.38 83.46 306.45 107.92"/><polygon class="cls-3" points="312.77 72.39 309.5 70.49 387.31 25.57 390.58 27.47 312.77 72.39"/><g class="cls-9"><path class="cls-3" d="M306.38,83.46l-3.27-1.9a14.14,14.14,0,0,1,6.4-11.07l3.26,1.9A14.15,14.15,0,0,0,306.38,83.46Z"/><g class="cls-36"><g class="cls-9"><path class="cls-3" d="M306.38,83.46l-3.27-1.9a14.14,14.14,0,0,1,6.4-11.07l3.26,1.9a14.15,14.15,0,0,0-6.39,11.07Z"/></g></g></g><path class="cls-31" d="M390.58,27.47c3.52-2,6.42-.39,6.43,3.66l.07,24.46a14.14,14.14,0,0,1-6.39,11.08l-58.39,33.7,1.28-1.88-15,8.69-.4,1.37-5.26,3c-3.52,2-6.42.38-6.43-3.67l-.07-24.46a14.15,14.15,0,0,1,6.39-11.07Z"/></g><path class="cls-10" d="M317.43,83.66c2.37-1.37,2.93-1.54,4.34-1.74v2.86a26,26,0,0,0-3.35,1.61c-1.38.79-1.95,1-1.95,4.92,0,3.1.31,3.57,2,2.61s3.33-2.09,3.33-2.09v2.86a15.38,15.38,0,0,1-4.34,3.11c-3,1.69-4.15,0-4.15-4.69C313.28,88.67,314.17,85.55,317.43,83.66Z"/><path class="cls-10" d="M322.44,91.31a5.18,5.18,0,0,1,2.86-4.61s1.67-1,1.67-1,0-.12,0-.13c0-1-.36-.78-1-.4-.41.24-3.21,2.07-3.21,2.07V85.13a13.13,13.13,0,0,1,3.74-2.92c2.3-1.33,3.67-1.46,3.67,1.36v6.77l-2.56,1.48-.62-.67a3.82,3.82,0,0,1-1.84,2.2c-2.07,1.1-2.69-.21-2.69-1.27Zm3.87-1.37a1.19,1.19,0,0,0,.66-1V87.8l-.85.59a1.17,1.17,0,0,0-.5,1.13v.12C325.62,90.42,326,90.12,326.31,89.94Z"/><path class="cls-10" d="M331.16,79.7l2.65-1.54.53.69a6.15,6.15,0,0,1,2.4-2.54c2.26-1.31,2.52.2,2.52,2.33v6.44l-3.18,1.84V80.4c0-.8-.18-.88-.54-.67a2.37,2.37,0,0,0-1.2,1.39v6.8l-3.18,1.84Z"/><path class="cls-10" d="M344.55,68.16l3.18-1.84V80.19L344.55,82Z"/><path class="cls-10" d="M353.12,63.21l3.18-1.84v5.52l2.79-1.61V59.76l3.19-1.84V71.8l-3.19,1.83V68.57l-2.79,1.61v5.06l-3.18,1.84Z"/><path class="cls-10" d="M367.08,58.88c2.91-1.68,4-1.89,4,1.45a4.49,4.49,0,0,1-2.57,4.18l-2,1.17c0,1.37.77.64,2-.06A17.69,17.69,0,0,0,370.91,64v2.38a21.41,21.41,0,0,1-4.76,3.28c-2.22,1.28-2.87,0-2.87-3.51C363.28,62,364.26,60.51,367.08,58.88Zm.33,3.92a1,1,0,0,0,.48-.88c0-.68,0-1-.58-.63s-.88.64-.85,2.06Z"/><path class="cls-10" d="M372,51.35l3.19-1.84V60c0,1.3.24,1.43.6,1.45a3.67,3.67,0,0,0,.81-.07v2.14l-2.27,1.31c-1.56.9-2.33.44-2.33-2.24Z"/><path class="cls-10" d="M377.33,53l2.72-1.57.48.65a6.22,6.22,0,0,1,2.15-2.28c1.95-1.13,2.82-.13,2.82,3.47,0,3.18-.46,5.49-2.82,6.86a4.63,4.63,0,0,1-2.17.68v5.53l-3.18,1.84Zm4.26,5.12c.46-.27.73-.68.73-2.82s-.25-2.17-.73-1.9a2.3,2.3,0,0,0-1.06,1v4C380.69,58.6,381.18,58.4,381.59,58.16Z"/><path class="cls-10" d="M386.13,44.59a22.06,22.06,0,0,1,4.62-3.24c2.5-1.44,3.76-.14,3.76,1.71v1A6,6,0,0,1,391,50v1.54l-2.38,1.37V48.67l1.51-.87a2.11,2.11,0,0,0,1.19-2V45.5c0-.83-.49-.89-1.42-.35l-3.79,2.19ZM388.49,54a.78.78,0,0,1,.39-.7l1.86-1.07c.29-.17.41-.07.41.23v2.22a.73.73,0,0,1-.41.67l-1.86,1.07c-.23.14-.39.06-.39-.2Z"/><g class="cls-9"><polygon class="cls-2" points="308.83 38.46 305.56 36.56 305.57 36.06 308.84 37.96 308.83 38.46"/><polygon class="cls-2" points="308.45 53.9 305.19 52 292.71 43.98 295.98 45.88 308.45 53.9"/><polygon class="cls-2" points="295.58 45.62 292.31 43.72 305.57 36.06 308.84 37.96 295.58 45.62"/><polygon class="cls-8" points="308.84 37.96 308.83 38.46 308.45 53.9 295.98 45.88 295.58 45.62 308.84 37.96"/><polygon class="cls-2" points="295.98 45.88 292.71 43.98 292.31 43.72 295.58 45.62 295.98 45.88"/><g class="cls-9"><path class="cls-2" d="M311.59.38l3.27,1.9c-1-.6-2.45-.51-4,.39L307.57.77A4,4,0,0,1,311.59.38Z"/><g class="cls-37"><g class="cls-9"><path class="cls-2" d="M310.84,2.67,307.57.77a4,4,0,0,1,4-.39l3.27,1.9c-1-.6-2.45-.51-4,.39Z"/></g></g></g><g class="cls-9"><path class="cls-2" d="M269.35,59.31l-3.27-1.9a4,4,0,0,1-1.65-3.62l3.27,1.9A3.93,3.93,0,0,0,269.35,59.31Z"/><g class="cls-38"><g class="cls-9"><path class="cls-2" d="M269.35,59.31l-3.27-1.9a4,4,0,0,1-1.65-3.62l3.27,1.9a3.93,3.93,0,0,0,1.65,3.62Z"/></g></g></g><polygon class="cls-2" points="267.69 55.69 264.43 53.79 264.37 32.23 267.63 34.13 267.69 55.69"/><polygon class="cls-2" points="273.27 24.36 270.01 22.46 307.57 0.77 310.84 2.67 273.27 24.36"/><g class="cls-9"><path class="cls-2" d="M267.63,34.13l-3.26-1.9A12.46,12.46,0,0,1,270,22.46l3.26,1.9A12.48,12.48,0,0,0,267.63,34.13Z"/><g class="cls-39"><g class="cls-9"><path class="cls-2" d="M267.63,34.13l-3.26-1.9A12.46,12.46,0,0,1,270,22.46l3.26,1.9a12.48,12.48,0,0,0-5.64,9.77Z"/></g></g></g><path class="cls-8" d="M310.84,2.67c3.11-1.8,5.67-.34,5.68,3.23l.06,21.57a12.48,12.48,0,0,1-5.64,9.77l-2.11,1.22V38l-13.26,7.66.4.26-22.61,13c-3.11,1.79-5.66.34-5.67-3.24l-.07-21.56a12.48,12.48,0,0,1,5.64-9.77Z"/></g><path class="cls-33" d="M277.82,32.83l1.72,2.86,1.73-4.85,3.52-2-3.66,9.1,3.58,4.82-3.53,2L279.54,42l-1.67,4.68-3.53,2,3.59-9-3.64-4.89Z"/><path class="cls-33" d="M285.3,32.15a6.75,6.75,0,0,1,3.25-5.63,13.29,13.29,0,0,1,5.09-2.31v2.86c-1.05.48-2.85,1.46-3.94,2.09-.88.51-1.21.74-1.21,1.53v.21c0,.59.1.85,1,.34l1.55-.89c2.49-1.44,3.06.73,3.06,2.25v.62a6.51,6.51,0,0,1-3.33,6.17c-3.07,1.77-3.43,2-5.07,2.28V38.81c.66-.3,2.73-1.36,4.25-2.24.71-.41,1-.77,1-1.34v-.3c0-.55-.15-.75-.87-.33l-1.48.85c-3.11,1.8-3.25-1.25-3.25-2.14Z"/><path class="cls-33" d="M295,29.85l5.16-3v2.92l-5.16,3Z"/><path class="cls-33" d="M301.19,19.34l3.19-1.84v9.59c0,1,.54.67,1,.4l3.38-1.95v3.29l-4.85,2.81c-1.5.86-2.73.76-2.73-1.38Z"/><g class="cls-9"><g class="cls-9"><path class="cls-4" d="M122.44,296l-5,57.78c0,3.59-2.37,7.17-7.08,9.91-9.47,5.5-24.89,5.51-34.43,0-4.8-2.77-7.2-6.41-7.19-10.05L64,295.82c0,4.36,2.86,8.73,8.62,12.05,11.45,6.61,30,6.61,41.32,0C119.6,304.59,122.43,300.29,122.44,296Z"/><g class="cls-40"><g class="cls-9"><path class="cls-6" d="M122.44,296l-5,57.78c0,3.59-2.37,7.17-7.08,9.91a33.19,33.19,0,0,1-13.62,4l.89-55A39.69,39.69,0,0,0,114,307.87c5.65-3.28,8.48-7.58,8.49-11.88Z"/><path class="cls-8" d="M97.6,312.65l-.89,55c-7.36.63-15.12-.7-20.81-4l0,0-3.28-55.81,0,0c6.82,3.94,16.14,5.53,25,4.78Z"/><path class="cls-6" d="M72.58,307.84l3.28,55.81c-4.77-2.77-7.16-6.39-7.15-10L64,295.82c0,4.35,2.84,8.7,8.57,12Z"/></g></g></g><path class="cls-4" d="M113.82,283.94c11.45,6.61,11.5,17.32.13,23.93s-29.87,6.61-41.32,0-11.51-17.32-.14-23.93S102.37,277.33,113.82,283.94Z"/></g><g class="cls-9"><g class="cls-9"><path class="cls-5" d="M124.85,290.14V295c0,4.67-3.08,9.33-9.21,12.89-12.34,7.18-32.41,7.18-44.83,0-6.25-3.61-9.38-8.34-9.36-13.07V290c0,4.73,3.11,9.47,9.36,13.08,12.42,7.17,32.49,7.17,44.83,0C121.77,299.47,124.84,294.8,124.85,290.14Z"/><g class="cls-41"><g class="cls-9"><path class="cls-5" d="M124.85,290.14V295c0,4.67-3.08,9.33-9.21,12.89A43.11,43.11,0,0,1,97.89,313v-4.82A43.06,43.06,0,0,0,115.64,303c6.13-3.56,9.2-8.23,9.21-12.89Z"/><path class="cls-33" d="M97.9,308.21V313c-9.58.81-19.69-.91-27.09-5.19l-.06,0V303l.06,0c7.4,4.27,17.52,6,27.09,5.18Z"/><path class="cls-5" d="M70.75,303v4.82c-6.21-3.6-9.32-8.33-9.3-13V290c0,4.72,3.09,9.44,9.3,13Z"/></g></g></g><path class="cls-33" d="M115.49,277.06c12.43,7.17,12.49,18.8.15,26s-32.41,7.17-44.83,0-12.49-18.8-.15-26S103.07,269.89,115.49,277.06Z"/></g><g class="cls-9"><path class="cls-5" d="M122.45,284.52v4.82c0,4.31-2.85,8.62-8.51,11.91-11.41,6.63-30,6.63-41.44,0-5.78-3.33-8.66-7.71-8.65-12.08v-4.82c0,4.38,2.88,8.75,8.65,12.09,11.48,6.62,30,6.62,41.44,0C119.6,293.14,122.44,288.84,122.45,284.52Z"/><g class="cls-42"><g class="cls-9"><path class="cls-5" d="M122.45,284.52v4.82c0,4.31-2.85,8.62-8.51,11.91A39.73,39.73,0,0,1,97.53,306v-4.82a39.72,39.72,0,0,0,16.4-4.78c5.66-3.3,8.5-7.6,8.51-11.92Z"/><path class="cls-33" d="M97.54,301.22V306c-8.86.76-18.2-.84-25-4.79l-.06,0,0-4.82,0,0c6.84,3.94,16.19,5.54,25,4.78Z"/><path class="cls-5" d="M72.45,296.4l0,4.82c-5.74-3.33-8.6-7.69-8.59-12.05v-4.82c0,4.36,2.86,8.73,8.6,12Z"/></g></g><path class="cls-33" d="M113.8,272.44c11.48,6.62,11.54,17.37.14,24s-30,6.62-41.44,0-11.54-17.38-.13-24S102.32,265.81,113.8,272.44Z"/><path class="cls-5" d="M109.64,294c-9,5.26-23.76,5.26-32.87,0a17.2,17.2,0,0,1-4.08-3.16c-4.73-5.1-3.41-11.58,4-15.87,9-5.26,23.76-5.26,32.86,0a14.27,14.27,0,0,1,6.09,6.1C117.66,285.49,115.67,290.45,109.64,294Z"/><path class="cls-33" d="M109.64,294c-9,5.26-23.76,5.26-32.87,0a17.2,17.2,0,0,1-4.08-3.16c-2-4.48-.07-9.45,6-13,9-5.26,23.76-5.26,32.86,0a17.44,17.44,0,0,1,4.1,3.18C117.66,285.49,115.67,290.45,109.64,294Z"/></g><path class="cls-5" d="M110.44,291.71l-3.33,1.92a4.32,4.32,0,0,1-3.9,0h0a1.19,1.19,0,0,1,0-2.26l3.33-1.92a4.32,4.32,0,0,1,3.9,0h0A1.19,1.19,0,0,1,110.44,291.71Z"/><path class="cls-31" d="M120.49,319l-2,23.1a22.54,22.54,0,0,1-4.45,3.33,39.63,39.63,0,0,1-16.36,4.78c-8.82.75-18.14-.84-25-4.78l-.06,0a22.13,22.13,0,0,1-4.81-3.68L66,318.71a19.38,19.38,0,0,0,6.69,6l.06,0c6.82,3.94,16.14,5.53,25,4.78A39.78,39.78,0,0,0,114,324.75,19.5,19.5,0,0,0,120.49,319Z"/><path class="cls-31" d="M73.6,325.24l1.26,21.35c6.37,3,14.4,4.26,22.13,3.71l.33-20.75C89,330.21,80.24,328.77,73.6,325.24Z"/><path class="cls-8" d="M324.87,232.32l27.94-16.16c3.47-2,6.3-.36,6.3,3.64v11.36c.44,4.57,2.35,7.64,5.47,7.6-3.81,4.76-8.71,6.28-13.11,5.78l-26.6,15.39c-3.47,2-6.3.36-6.3-3.64V243.24A14,14,0,0,1,324.87,232.32Z"/><polygon class="cls-33" points="345.29 238.86 352.64 234.59 352.64 231.02 345.29 235.29 345.29 238.86"/><polygon class="cls-33" points="322.73 242 322.73 245.56 352.64 228.26 352.64 224.7 322.73 242"/><path class="cls-33" d="M378.47,164.74l21-12.26c3.47-2,6.31-.36,6.31,3.65v11.35c.44,4.58,2.35,7.64,5.47,7.6-3.82,4.76-8.71,6.28-13.11,5.79l-19.72,11.48c-3.47,2-6.31.37-6.31-3.64V175.66A14,14,0,0,1,378.47,164.74Z"/><path class="cls-43" d="M384.4,168a25.55,25.55,0,0,1,5.39-3.78c2.91-1.68,4.38-.16,4.38,2v1.12a7,7,0,0,1-4.07,6.93V176l-2.78,1.6v-4.9l1.76-1a2.47,2.47,0,0,0,1.4-2.35V169c0-1-.57-1-1.66-.41l-4.42,2.55Zm2.75,11a.94.94,0,0,1,.46-.82l2.16-1.25c.35-.19.48-.07.48.28v2.58a.87.87,0,0,1-.48.79l-2.16,1.24c-.27.16-.46.07-.46-.24Z"/></g></g></svg>